<svg id="Layer_1" data-name="Layer 1" xmlns="http://www.w3.org/2000/svg" viewBox="0 0 1000 1000"><defs><style>.cls-1{fill:#a0ace9;}.cls-2{fill:#2a2b7c;}.cls-3{fill:#7aa2f6;}.cls-4{fill:#4b60a4;}.cls-5{fill:#fff;}</style></defs><title>LandingIllustration</title><path class="cls-1" d="M710,669.16c19.57,6,40.91,10.12,60.93,10,63.37-.35,32-38,4.59-43.78,13.82-1,65.43,1.55,63.31-7-1.76-7.13-18.21-17.25-23-15.86,17.45-5.89,44.22-7.3,45.71-28.93,1.52-22-47.79,1.85-55.59,5.74,9.35-18.4,13.2-38.4-24.36-13.22-12.71,8.52-26.78,24.42-34.44,34.82-15.8,21.45-43.44,43.93-66.41,55.61Z"/><path class="cls-2" d="M315.85,564.34c-80.47-46.16-86.14-241.83-86.19-243.8l2.59-.06c0.05,2,5.67,196.17,84.88,241.63Z"/><path class="cls-2" d="M287.8,535.47c-0.08.87,8.5-46,29.92-43.24s-30,44.11-30,44.11Z"/><path class="cls-2" d="M270.91,511.41s18.73-53.8,35.16-43.64S270.91,511.41,270.91,511.41Z"/><path class="cls-2" d="M259,481.62s24.21-57.87,44.45-44C318.73,448.2,259,481.62,259,481.62Z"/><path class="cls-2" d="M244.6,428.39s18.12-56.45,34.23-42.85S244.6,428.39,244.6,428.39Z"/><path class="cls-2" d="M248,449.16s31.47-51,43.34-33.61C299.33,427.28,248,449.16,248,449.16Z"/><path class="cls-2" d="M238.35,392.28s21.16-61.38,37.11-46.06S238.35,392.28,238.35,392.28Z"/><path class="cls-2" d="M235,352.09s11.78-53.56,20.78-38S235,352.09,235,352.09Z"/><path class="cls-2" d="M231.13,337.86s-22.54-48-6-48.23S231.13,337.86,231.13,337.86Z"/><path class="cls-2" d="M235,352.09s-50-13.18-36.52-27.58S235,352.09,235,352.09Z"/><path class="cls-2" d="M236.61,382.58s-58.55-14-52.4-34.22S236.61,382.58,236.61,382.58Z"/><path class="cls-2" d="M243.42,412.68S165.95,397,177.35,376.35,243.42,412.68,243.42,412.68Z"/><path class="cls-2" d="M249.46,441.84s-87-6.16-81.39-29.92S249.46,441.84,249.46,441.84Z"/><path class="cls-2" d="M263.31,489.9s-78.19-27-83.65-5S263.31,489.9,263.31,489.9Z"/><path class="cls-2" d="M251.17,460.71s-64.77-33.77-72.32-12.41S251.17,460.71,251.17,460.71Z"/><path class="cls-2" d="M269.57,506.95s-69.74-15-64.89,8,66.22-3.54,66.22-3.54Z"/><path class="cls-3" d="M199.9,617.64c-6.86-5.57-14.27-10.85-16.2-20.3-2.66-13.11,5.61-13.46,12.2-23.56-17.94-9.66-34.5-12.43-45.4-33.23-10.73-20.48,1.8-33.5,22.69-28.73,2.87,0.65-15.18-15.89-18.26-18.72-6.81-6.25-11.82-15.54-14.52-24.29-4.91-15.84-1-36,19.25-35.75,17.57,0.22,24.18,19.84,30,33.72,2.62,6.23,5.55,14.14,6.7,21,9.58-6.74,14-20.07,26.12-9.45,8.47,7.42,9.76,24.89,4.79,34.37,13.77,0.13,21.52-2.77,32.12,6.89,6.84,6.24,13.39,16.75,17.6,25.9,9.57,20.82,22.56,96.43,24,120.9C301,666.41,214.24,629.3,199.9,617.64Z"/><path class="cls-4" d="M299.53,651.81l-0.16-.13a188.86,188.86,0,0,1-16.07-14.6,22.91,22.91,0,0,0,1.55-3.94c1.43-4.21,3.4-8.26,5.06-12.39,1.24-3.1,2.34-6.24,3.37-9.41q-0.54-3-1.1-6-1.24,4.31-2.75,8.56c-1.53,4.31-3.29,8.53-5.06,12.74-0.85,2-1.72,6-3.07,8.4-4.3-4.34-8.53-8.75-12.8-13s-8.48-8.71-12.58-13.21a34.08,34.08,0,0,0,4.4-8.58c1.34-3.32,3.36-6.29,4-9.9,0.91-5.34,3.3-10.59,4.72-15.83a91.87,91.87,0,0,0,2.42-13.17c0.9-7.51,1.71-15,2.17-22.56q-0.94-1.72-2-3.42c-0.37,7.11-1.19,14.2-2.07,21.26a142.73,142.73,0,0,1-6.76,29.16c-2.34,6.82-4.19,15.14-8.73,21.05q-7.47-8.3-14.5-17c3-6.34,6.28-12.43,9.07-18.89,3.62-8.39,5-18.27,6.51-27.21A173.57,173.57,0,0,0,257.54,518c-0.71-.57-1.41-1.08-2.1-1.54a167.92,167.92,0,0,1-2.32,24.85,155.45,155.45,0,0,1-6.78,28.75c-2.18,6.16-5.64,11.77-8.52,17.6q-7.23-9-14.1-18.28c3.27-4.17,4.46-10.51,5.71-15.41a297.71,297.71,0,0,0,5.89-30.83c0.52-3.55.87-7.11,1.14-10.68l-2.3.09c-0.29,3.44-.64,6.87-1.12,10.31-1.19,8.55-2.89,17-4.93,25.41-1.39,5.75-2.21,13.83-5.88,19.08-0.83-1.13-1.67-2.26-2.5-3.4-3.8-5.24-7.59-10.55-11.27-15.92,3-5.68,4.31-12.14,5.15-18.48,1.17-8.79,3.76-17.38,4.93-26.2a160.52,160.52,0,0,0,1.54-26.9,14.19,14.19,0,0,0-2.8-1.49,163.22,163.22,0,0,1-.9,28.12c-0.92,7.48-2.76,14.84-4.32,22.2-1.49,7-2.4,13.84-5.16,20.44-2.55-3.79-5.05-7.61-7.4-11.5-3.57-5.9-6.59-12.12-10-18.12-1.36-2.42-2.95-4.75-4.53-7.07,0.19-.08,3.35-19.5,4.62-28.9,0.41-3.06,1-6.31,1.57-9.6-0.51-1.3-1-2.57-1.53-3.77l-0.79-1.9c-0.41,4.39-.63,8.83-1.17,13-1.28,9.83-3.41,19.93-3.62,29.86a57.38,57.38,0,0,1-5.46-9.45c-1.82-4.29-3.52-8.6-5.26-12.88,4-9.26,4.61-20.67,5.89-30.6q0.51-4,1-8.07-1-1.53-2-3c-0.42,4.25-1.12,8.5-1.65,12.79-1.05,8.7-2.09,17.77-4.34,26.29a154.42,154.42,0,0,0-7.83-16.63,2,2,0,0,1-.18-0.51c1.16-7.1,2.07-14.26,3.12-21.38,0.42-2.86,1.07-5.89,1.57-8.94a19.93,19.93,0,0,0-2.71-1.16c-0.43,3.32-.65,6.7-1.11,9.81-0.91,6.2-1.89,12.41-2.58,18.65-2.24-4.33-4.28-8.76-6.5-13.11a113.74,113.74,0,0,1-6.51-14.46c-0.46.22-.9,0.48-1.33,0.74,0.94,2.94,2.22,5.81,3.37,8.52,2.73,6.42,6,12.74,9.16,19,0.73,1.43,1.43,2.87,2.15,4.3-2.21-1.19-20.19-8.91-24.34-9.59a4.55,4.55,0,0,0,0,.76c5.17,2.53,25.41,11.74,25.71,11.57,3.25,6.69,6.26,13.42,9.08,20.31a82.41,82.41,0,0,0-11.54-3.29c-5.09-1-9.87-3.1-14.93-4.24,0.18,0.3.36,0.59,0.55,0.89,4,1.3,7.93,3,12,4.11,2.68,0.75,5.43,1.23,8.12,2,2.26,0.63,3.86,1.64,6.22,1.72,0.75,1.83,1.5,3.65,2.21,5.5,2.05,5.32,5.3,9.55,8.41,14.3,4.18,6.39,7.45,13.42,11.1,20.11,1.11,2,2.3,4,3.51,6-3.28.06-6.27-.93-9.44-2-5.12-1.81-10.33-3.36-15.39-5.33-8-3.13-17.42-7.35-24.7-13.1-0.24.31-.46,0.64-0.68,1,8.13,7,19.2,11.87,28.63,15.41,2.34,0.89,18.82,8.29,22.65,5.8,1.89,3,3.87,5.91,5.89,8.82a0.92,0.92,0,0,0,.4.58c1.93,2.79,3.89,5.55,5.82,8.33-12.11-1.34-24.4-2.72-36-6.64a138.37,138.37,0,0,1-27-12.7c0.39,0.88.8,1.77,1.28,2.68,0.2,0.38.42,0.71,0.62,1.08,18.32,12.1,41.36,16,62.69,18.51a1.27,1.27,0,0,0,.41,0c0.84,1.23,1.68,2.44,2.49,3.68,1.27,1.92,2.64,3.76,4,5.58A1.33,1.33,0,0,0,222,570.9c2,2.5,4,5,5.89,7.53,3.31,4.43,6.42,8.93,9.84,13.25-1.43-.3-9.43,1.08-10.48,1.13a206,206,0,0,1-21.27.35,135.79,135.79,0,0,1-20.27-2.71c-0.72-.15-1.45-0.32-2.18-0.49a14.06,14.06,0,0,0-.23,1.72c0.64,0.2,1.28.39,1.95,0.58a115.71,115.71,0,0,0,18.45,3,119,119,0,0,0,18,.26,68.42,68.42,0,0,0,9.05-.59c2.78-.5,5.12-1.49,8-0.93a1,1,0,0,0,.72-0.15c0.12,0.13.22,0.27,0.33,0.4,4,4.73,8.08,9.4,12.26,14-5.14.2-10.16,2.81-15.08,4.12a71.89,71.89,0,0,1-23.25,2c-6.76-.42-13.57-1.22-20.28-2.11,1.16,1,2.34,2,3.55,3,4.74,0.63,9.54,1,14.21,1.52a76,76,0,0,0,19.84-.35,74.74,74.74,0,0,0,8.74-2c3.95-1.09,8.45-3.48,12.57-3.44a1.48,1.48,0,0,0,1.38-.89q6.73,7.36,13.72,14.37c-2.33,1.45-4.55,3.11-6.94,4.49-4.51,2.6-9.29,4.15-14.19,5.9-2.55.92-5.62,2-8.85,2.93l3.1,1.46,2.21-.54a74.26,74.26,0,0,0,18.74-7.31c2.32-1.31,6-2.68,7.82-5,3.49,3.51,7,7.08,10.5,10.61a1.4,1.4,0,0,0,1.86,1.87c4.69,4.67,9.48,9.25,14.51,13.51,1.24,1.05,2.5,2.07,3.77,3.09C299.84,654.33,299.69,653.1,299.53,651.81Z"/><path class="cls-4" d="M766.71,539.48c-0.14-21.45,8-47.81,17.5-68.23,6.45-13.81,25.59-49,44.69-47.92,21.42,1.23,14.13,43.43,8.41,56.81-8.37,19.64-22.23,34.18-37.47,49-14.46,14.07-26.76,30.64-41,44Z"/><path class="cls-4" d="M724.64,588.27c10.35-18.8,30.26-37.86,48.55-51,12.37-8.9,46.25-30.31,62.39-20,18.1,11.52-8.85,44.8-20.36,53.69-16.89,13.06-36.09,19-56.63,24.51-19.48,5.23-38.3,13.7-57.22,18.44Z"/><path class="cls-3" d="M729.23,558.64c-13.21-20.74-34.86-29.55-25.4-59,3.78-11.76,14.54-19.88,19.7-30.42,6.45-13.16,1.43-15.11-.23-28.2-3.6-28.21,18.68-36.18,32-59.17,9.33-16,7.17-33.62,19.52-50.8,12.53-17.46,35.42-34.11,40.47-54,2.36,34.1,27.73,84.48-5.34,116.49,19.15,8.81,22.21,29.37,12.74,46.61-4.53,8.23-18.73,15.62-21.47,24.11-3.74,11.59,4.83,11.19,5.67,21,2.67,31-110.31,86.07-81.7,114.7Z"/><path class="cls-5" d="M799.76,346.24a115.07,115.07,0,0,0,25.68-13.91c-0.14-.94-0.28-1.86-0.43-2.79a107.06,107.06,0,0,1-24.61,13.82q1.43-6.55,2.76-13c0.79-3.81,1.58-7.61,2.4-11.4,0.77-3.55,1.76-7.17,2.71-10.67,0.81-3,1.64-6,2.33-9,0.43-1.86,1-4,1.63-6.32a130.55,130.55,0,0,0,3.25-14.23c0-.54-0.1-1.08-0.15-1.62a44.3,44.3,0,0,1-5,11.68l-1,4c-0.62,2.31-1.2,4.48-1.65,6.4-0.67,2.92-1.49,6-2.3,8.91-1,3.52-2,7.16-2.73,10.78q-1.23,5.69-2.4,11.41c-2,9.5-4,19.25-6.59,29-10.12-4.3-14.33-18.69-16.26-31.41-0.86,1.08-1.68,2.16-2.47,3.26a0.85,0.85,0,0,1-.09.12c2.3,12.86,7.13,26.7,18.11,30.66-0.3,1.06-.56,2.14-0.87,3.21-2.71,9.4-5.9,18.8-9.32,28.1-9.64-8.53-16.75-19.2-20.27-30.14-0.44,1.71-.9,3.42-1.42,5.12a73.45,73.45,0,0,0,20.6,27.95c-3,8-6.09,15.94-9.17,23.77l-0.23.14,0.13,0.12c-0.11.24-.2,0.49-0.29,0.73q-1.28,3.27-2.59,6.59a68.25,68.25,0,0,0-7.69-7.31,65.57,65.57,0,0,1-7.56-7.15c-4.68-5.5-6.82-11.35-8.81-17.52-0.79.92-1.57,1.8-2.36,2.68,1.86,5.58,4.16,11.21,8.6,16.45a69.41,69.41,0,0,0,7.81,7.38,58.62,58.62,0,0,1,8.37,8.12l0.78-.46c-3.9,10-7.78,20.17-11.27,30.34-0.18.53-.36,1.07-0.54,1.59-2.25-3.39-6.47-6.66-10.35-9.66a54.06,54.06,0,0,1-6.23-5.26c-6.13-6.75-12.31-14.3-15.69-22.25a34.77,34.77,0,0,0-1.12,4.78c3.63,6.85,9,13.29,14.3,19.13a54.7,54.7,0,0,0,6.5,5.53c4.74,3.63,10.56,8.13,11.14,12-5.55,16.18-11.49,33.21-17.65,49.86-4.65,12.53-7.06,25.32-9.41,37.68-0.18,1-.36,1.93-0.55,2.89,0.51,0.75,1,1.51,1.52,2.29l-0.93,9.67c1.08-5,2-9.94,3-14.81,2.32-12.28,4.7-25,9.29-37.32,6.21-16.73,12.15-33.84,17.72-50.09l0.12,0a2.09,2.09,0,0,0,0-.26q0.95-2.74,1.86-5.45c1.23-3.6,2.52-7.2,3.84-10.79,5.69-2.19,12.63-3.57,19.37-4.89,5.21-1,10.62-2.09,15.39-3.52,11.82-3.57,20.14-8.63,28.56-14.07a31.91,31.91,0,0,0,.4-3.22c-8.92,5.8-17.38,11.27-29.66,15-4.59,1.39-9.89,2.43-15,3.43a146.41,146.41,0,0,0-17.93,4.33c3.16-8.51,6.47-17,9.74-25.25a0.78,0.78,0,0,1,.05-0.13c2.7-1.54,6.72-2.49,10.63-3.41a65.84,65.84,0,0,0,8.94-2.54c6.93-2.74,18.3-7.26,25.93-14.08-0.57-.62-1.17-1.22-1.8-1.8-6.08,5.57-15.49,9.84-25.14,13.67a63.9,63.9,0,0,1-8.4,2.36,68.37,68.37,0,0,0-8.88,2.52c4.9-12.45,9.83-25.16,14.14-38q1.63-.13,3.39-0.4c9.4-1.48,21.35-5.9,31-11.65,0.27-1.11.53-2.24,0.75-3.38-10.28,6.65-24.4,11.9-34.32,12.89q2-6,3.74-12.06C796.79,359,798.34,352.58,799.76,346.24Z"/><path class="cls-5" d="M725.84,578.49c0.49-1.79.93-3.62,1.37-5.44a53.1,53.1,0,0,0-3.34,5.3Z"/></svg>