<svg id="svg" xmlns="http://www.w3.org/2000/svg" xmlns:xlink="http://www.w3.org/1999/xlink" width="400" height="112" viewBox="0, 0, 400,112"><g id="svgg"><path id="path0" d="M6.167 55.000 L 6.167 100.167 14.583 100.167 L 23.000 100.167 23.000 95.206 L 23.000 90.246 23.417 89.933 C 23.646 89.761,23.833 89.515,23.833 89.387 C 23.833 89.259,24.171 88.826,24.583 88.425 C 24.996 88.024,25.333 87.615,25.333 87.515 C 25.333 87.415,25.414 87.333,25.512 87.333 C 25.706 87.333,26.167 86.923,26.167 86.750 C 26.167 86.691,26.260 86.538,26.375 86.411 C 26.828 85.906,27.000 85.676,27.000 85.578 C 27.000 85.443,27.447 85.000,27.583 85.000 C 27.744 85.000,28.167 84.546,28.167 84.373 C 28.167 84.291,28.354 84.123,28.583 84.000 C 28.813 83.877,29.000 83.709,29.000 83.627 C 29.000 83.544,29.096 83.380,29.213 83.263 C 29.468 83.008,29.833 83.304,29.833 83.766 C 29.833 83.919,30.021 84.219,30.250 84.431 C 30.479 84.644,30.667 84.933,30.667 85.075 C 30.667 85.217,30.742 85.333,30.833 85.333 C 30.925 85.333,31.000 85.486,31.000 85.672 C 31.000 85.858,31.112 86.054,31.250 86.106 C 31.387 86.159,31.500 86.307,31.500 86.434 C 31.500 86.562,31.575 86.667,31.667 86.667 C 31.758 86.667,31.833 86.789,31.833 86.939 C 31.833 87.089,32.021 87.386,32.250 87.598 C 32.479 87.810,32.667 88.100,32.667 88.242 C 32.667 88.384,32.742 88.500,32.833 88.500 C 32.925 88.500,33.000 88.612,33.000 88.750 C 33.000 88.888,33.112 89.000,33.250 89.000 C 33.387 89.000,33.500 89.136,33.500 89.302 C 33.500 89.468,33.650 89.765,33.833 89.962 C 34.017 90.158,34.167 90.394,34.167 90.485 C 34.167 90.577,34.354 90.839,34.583 91.068 C 34.813 91.297,35.000 91.603,35.000 91.748 C 35.000 91.892,35.113 92.054,35.250 92.106 C 35.388 92.159,35.500 92.307,35.500 92.434 C 35.500 92.562,35.575 92.667,35.667 92.667 C 35.758 92.667,35.833 92.789,35.833 92.939 C 35.833 93.089,36.021 93.386,36.250 93.598 C 36.479 93.810,36.669 94.081,36.672 94.200 C 36.679 94.499,37.079 95.000,37.310 95.000 C 37.415 95.000,37.500 95.171,37.500 95.380 C 37.500 95.589,37.650 95.868,37.833 96.000 C 38.017 96.132,38.167 96.363,38.167 96.513 C 38.167 96.664,38.354 96.927,38.583 97.100 C 38.813 97.272,39.000 97.582,39.000 97.790 C 39.000 98.014,39.101 98.167,39.250 98.167 C 39.387 98.167,39.500 98.279,39.500 98.417 C 39.500 98.554,39.575 98.667,39.667 98.667 C 39.758 98.667,39.833 98.817,39.833 99.000 C 39.833 99.183,39.908 99.333,40.000 99.333 C 40.092 99.333,40.167 99.446,40.167 99.583 C 40.167 99.721,40.279 99.833,40.417 99.833 C 40.554 99.833,40.667 99.908,40.667 100.000 C 40.667 100.109,44.111 100.167,50.667 100.167 L 60.667 100.167 60.667 99.661 C 60.667 99.366,60.563 99.116,60.417 99.060 C 60.279 99.008,60.164 98.841,60.161 98.691 C 60.155 98.345,59.774 97.833,59.523 97.833 C 59.419 97.833,59.333 97.662,59.333 97.453 C 59.333 97.245,59.183 96.965,59.000 96.833 C 58.817 96.701,58.667 96.501,58.667 96.387 C 58.667 96.274,58.479 95.994,58.250 95.765 C 58.021 95.536,57.833 95.195,57.833 95.008 C 57.833 94.816,57.724 94.667,57.583 94.667 C 57.446 94.667,57.333 94.554,57.333 94.417 C 57.333 94.279,57.258 94.167,57.167 94.167 C 57.075 94.167,57.000 94.044,57.000 93.894 C 57.000 93.744,56.813 93.448,56.583 93.235 C 56.354 93.023,56.167 92.728,56.167 92.579 C 56.167 92.273,55.780 91.833,55.512 91.833 C 55.414 91.833,55.333 91.662,55.333 91.453 C 55.333 91.245,55.183 90.965,55.000 90.833 C 54.817 90.701,54.667 90.470,54.667 90.320 C 54.667 90.170,54.479 89.906,54.250 89.734 C 54.021 89.561,53.833 89.251,53.833 89.044 C 53.833 88.820,53.732 88.667,53.583 88.667 C 53.446 88.667,53.333 88.554,53.333 88.417 C 53.333 88.279,53.258 88.167,53.167 88.167 C 53.075 88.167,53.000 88.017,53.000 87.833 C 53.000 87.650,52.925 87.500,52.833 87.500 C 52.742 87.500,52.667 87.388,52.667 87.250 C 52.667 87.112,52.554 87.000,52.417 87.000 C 52.275 87.000,52.167 86.851,52.167 86.655 C 52.167 86.286,51.806 85.833,51.512 85.833 C 51.414 85.833,51.333 85.662,51.333 85.453 C 51.333 85.245,51.183 84.965,51.000 84.833 C 50.817 84.701,50.667 84.470,50.667 84.320 C 50.667 84.170,50.479 83.906,50.250 83.734 C 50.021 83.561,49.833 83.251,49.833 83.044 C 49.833 82.820,49.732 82.667,49.583 82.667 C 49.446 82.667,49.333 82.554,49.333 82.417 C 49.333 82.279,49.258 82.167,49.167 82.167 C 49.075 82.167,49.000 82.017,49.000 81.833 C 49.000 81.650,48.925 81.500,48.833 81.500 C 48.742 81.500,48.667 81.387,48.667 81.250 C 48.667 81.112,48.554 81.000,48.417 81.000 C 48.275 81.000,48.167 80.851,48.167 80.655 C 48.167 80.286,47.806 79.833,47.512 79.833 C 47.414 79.833,47.333 79.662,47.333 79.453 C 47.333 79.245,47.183 78.965,47.000 78.833 C 46.817 78.701,46.667 78.470,46.667 78.320 C 46.667 78.170,46.479 77.906,46.250 77.734 C 46.021 77.561,45.833 77.251,45.833 77.044 C 45.833 76.820,45.732 76.667,45.583 76.667 C 45.446 76.667,45.333 76.554,45.333 76.417 C 45.333 76.279,45.258 76.167,45.167 76.167 C 45.075 76.167,45.000 76.017,45.000 75.833 C 45.000 75.650,44.925 75.500,44.833 75.500 C 44.742 75.500,44.667 75.387,44.667 75.250 C 44.667 75.112,44.554 75.000,44.417 75.000 C 44.275 75.000,44.167 74.851,44.167 74.655 C 44.167 74.286,43.806 73.833,43.512 73.833 C 43.414 73.833,43.333 73.662,43.333 73.453 C 43.333 73.245,43.183 72.965,43.000 72.833 C 42.817 72.701,42.667 72.470,42.667 72.320 C 42.667 72.170,42.479 71.906,42.250 71.734 C 42.021 71.561,41.833 71.251,41.833 71.044 C 41.833 70.820,41.732 70.667,41.583 70.667 C 41.446 70.667,41.333 70.560,41.333 70.431 C 41.333 70.301,41.248 70.166,41.144 70.131 C 40.896 70.049,41.326 69.333,41.623 69.333 C 41.739 69.333,41.833 69.183,41.833 69.000 C 41.833 68.817,41.908 68.667,42.000 68.667 C 42.092 68.667,42.167 68.554,42.167 68.417 C 42.167 68.279,42.247 68.167,42.345 68.167 C 42.539 68.167,43.000 67.756,43.000 67.583 C 43.000 67.410,43.461 67.000,43.655 67.000 C 43.753 67.000,43.833 66.933,43.833 66.850 C 43.833 66.768,44.096 66.438,44.417 66.117 C 44.737 65.796,45.000 65.445,45.000 65.338 C 45.000 65.094,45.416 64.667,45.655 64.667 C 45.753 64.667,45.833 64.592,45.833 64.500 C 45.833 64.408,46.283 63.883,46.833 63.333 C 47.383 62.783,47.833 62.221,47.833 62.083 C 47.833 61.946,47.908 61.833,48.000 61.833 C 48.092 61.833,48.167 61.721,48.167 61.583 C 48.167 61.446,48.245 61.333,48.341 61.333 C 48.437 61.333,48.699 61.149,48.924 60.924 C 49.149 60.699,49.333 60.437,49.333 60.341 C 49.333 60.245,49.414 60.167,49.512 60.167 C 49.706 60.167,50.167 59.756,50.167 59.583 C 50.167 59.410,50.627 59.000,50.821 59.000 C 50.920 59.000,51.000 58.845,51.000 58.655 C 51.000 58.286,51.361 57.833,51.655 57.833 C 51.753 57.833,51.833 57.753,51.833 57.655 C 51.833 57.557,51.940 57.369,52.071 57.238 C 52.202 57.107,52.390 57.000,52.488 57.000 C 52.586 57.000,52.667 56.933,52.667 56.852 C 52.667 56.771,53.004 56.362,53.417 55.943 C 53.829 55.525,54.167 55.103,54.167 55.005 C 54.167 54.907,54.429 54.573,54.750 54.261 C 55.071 53.949,55.333 53.613,55.333 53.514 C 55.333 53.415,55.417 53.333,55.519 53.333 C 55.824 53.333,57.333 51.652,57.333 51.313 C 57.333 51.141,57.414 51.000,57.512 51.000 C 57.743 51.000,58.167 50.576,58.167 50.345 C 58.167 50.247,58.247 50.167,58.345 50.167 C 58.684 50.167,59.000 49.689,59.000 49.179 L 59.000 48.667 49.071 48.667 C 38.764 48.667,38.667 48.673,38.667 49.321 C 38.667 49.420,38.588 49.500,38.492 49.500 C 38.266 49.500,37.500 50.266,37.500 50.492 C 37.500 50.588,37.415 50.667,37.310 50.667 C 37.054 50.667,36.679 51.181,36.672 51.542 C 36.669 51.702,36.586 51.833,36.488 51.833 C 36.294 51.833,35.833 52.244,35.833 52.417 C 35.833 52.590,35.373 53.000,35.179 53.000 C 35.080 53.000,35.000 53.076,35.000 53.169 C 35.000 53.263,34.663 53.662,34.250 54.058 C 33.812 54.477,33.500 54.927,33.500 55.138 C 33.500 55.337,33.421 55.500,33.325 55.500 C 33.098 55.500,31.500 57.098,31.500 57.325 C 31.500 57.421,31.422 57.500,31.326 57.500 C 31.068 57.500,30.391 58.224,30.259 58.639 C 30.196 58.838,30.074 59.000,29.989 59.000 C 29.903 59.000,29.833 59.080,29.833 59.179 C 29.833 59.373,29.423 59.833,29.250 59.833 C 29.077 59.833,28.667 60.294,28.667 60.488 C 28.667 60.586,28.567 60.667,28.445 60.667 C 28.323 60.667,28.123 60.854,28.000 61.083 C 27.877 61.313,27.715 61.500,27.639 61.500 C 27.562 61.500,27.500 61.650,27.500 61.833 C 27.500 62.019,27.389 62.167,27.250 62.167 C 27.113 62.167,27.000 62.247,27.000 62.345 C 27.000 62.576,26.576 63.000,26.345 63.000 C 26.247 63.000,26.167 63.078,26.167 63.174 C 26.167 63.400,25.400 64.167,25.174 64.167 C 25.078 64.167,25.000 64.245,25.000 64.341 C 25.000 64.437,24.812 64.703,24.583 64.932 C 24.354 65.161,24.167 65.441,24.167 65.554 C 24.167 65.667,24.017 65.868,23.833 66.000 C 23.650 66.132,23.500 66.336,23.500 66.453 C 23.500 66.571,23.387 66.667,23.250 66.667 C 23.029 66.667,23.000 63.398,23.000 38.250 L 23.000 9.833 14.583 9.833 L 6.167 9.833 6.167 55.000 M64.667 55.000 L 64.667 100.167 73.250 100.167 L 81.833 100.167 81.833 55.000 L 81.833 9.833 73.250 9.833 L 64.667 9.833 64.667 55.000 M218.167 25.417 L 218.167 41.000 218.750 41.000 C 219.071 41.000,219.333 40.925,219.333 40.833 C 219.333 40.742,219.521 40.667,219.750 40.667 C 220.009 40.667,220.167 40.572,220.167 40.417 C 220.167 40.275,220.316 40.167,220.512 40.167 C 220.881 40.167,221.333 39.806,221.333 39.512 C 221.333 39.414,221.521 39.333,221.750 39.333 C 221.979 39.333,222.167 39.258,222.167 39.167 C 222.167 39.075,222.322 39.000,222.512 39.000 C 222.881 39.000,223.333 38.639,223.333 38.345 C 223.333 38.247,223.493 38.167,223.689 38.167 C 223.885 38.167,224.219 37.979,224.431 37.750 C 224.644 37.521,224.933 37.333,225.075 37.333 C 225.217 37.333,225.333 37.258,225.333 37.167 C 225.333 37.075,225.489 37.000,225.679 37.000 C 225.868 37.000,226.139 36.884,226.281 36.743 C 226.512 36.512,226.576 36.512,226.930 36.743 C 227.145 36.884,227.437 37.000,227.577 37.000 C 227.718 37.000,227.833 37.075,227.833 37.167 C 227.833 37.258,228.021 37.333,228.250 37.333 C 228.479 37.333,228.667 37.419,228.667 37.523 C 228.667 37.779,229.181 38.155,229.542 38.161 C 229.702 38.164,229.833 38.279,229.833 38.417 C 229.833 38.566,229.987 38.667,230.213 38.667 C 230.422 38.667,230.701 38.817,230.833 39.000 C 230.965 39.183,231.245 39.333,231.453 39.333 C 231.680 39.333,231.833 39.434,231.833 39.583 C 231.833 39.721,231.946 39.833,232.083 39.833 C 232.221 39.833,232.333 39.908,232.333 40.000 C 232.333 40.092,232.475 40.167,232.649 40.167 C 232.822 40.167,233.008 40.279,233.060 40.417 C 233.113 40.554,233.309 40.667,233.495 40.667 C 233.681 40.667,233.833 40.742,233.833 40.833 C 233.833 40.925,234.096 41.000,234.417 41.000 L 235.000 41.000 235.000 25.417 L 235.000 9.833 226.583 9.833 L 218.167 9.833 218.167 25.417 M334.167 55.000 L 334.167 100.167 342.583 100.167 L 351.000 100.167 351.000 55.000 L 351.000 9.833 342.583 9.833 L 334.167 9.833 334.167 55.000 M359.000 46.149 C 359.000 78.276,359.029 82.475,359.250 82.560 C 359.444 82.635,359.500 82.959,359.500 83.995 C 359.500 84.776,359.569 85.333,359.667 85.333 C 359.758 85.333,359.833 85.708,359.833 86.167 C 359.833 86.625,359.908 87.000,360.000 87.000 C 360.092 87.000,360.167 87.263,360.167 87.583 C 360.167 87.991,360.242 88.167,360.417 88.167 C 360.591 88.167,360.667 88.343,360.667 88.750 C 360.667 89.071,360.742 89.333,360.833 89.333 C 360.925 89.333,361.000 89.588,361.000 89.899 C 361.000 90.248,361.096 90.501,361.250 90.560 C 361.387 90.613,361.500 90.809,361.500 90.995 C 361.500 91.181,361.575 91.333,361.667 91.333 C 361.758 91.333,361.833 91.493,361.833 91.689 C 361.833 91.885,362.021 92.219,362.250 92.431 C 362.479 92.644,362.667 92.933,362.667 93.075 C 362.667 93.217,362.742 93.333,362.833 93.333 C 362.925 93.333,363.000 93.486,363.000 93.672 C 363.000 93.858,363.113 94.054,363.250 94.106 C 363.387 94.159,363.500 94.273,363.500 94.359 C 363.500 94.571,364.276 95.333,364.492 95.333 C 364.588 95.333,364.667 95.483,364.667 95.667 C 364.667 96.099,365.901 97.333,366.333 97.333 C 366.517 97.333,366.667 97.414,366.667 97.512 C 366.667 97.743,367.091 98.167,367.321 98.167 C 367.420 98.167,367.500 98.279,367.500 98.417 C 367.500 98.556,367.648 98.667,367.833 98.667 C 368.017 98.667,368.167 98.742,368.167 98.833 C 368.167 98.925,368.279 99.000,368.417 99.000 C 368.554 99.000,368.667 99.075,368.667 99.167 C 368.667 99.258,368.854 99.333,369.083 99.333 C 369.343 99.333,369.500 99.428,369.500 99.583 C 369.500 99.722,369.648 99.833,369.833 99.833 C 370.017 99.833,370.167 99.908,370.167 100.000 C 370.167 100.092,370.346 100.167,370.566 100.167 C 370.785 100.167,371.008 100.279,371.060 100.417 C 371.116 100.561,371.365 100.667,371.652 100.667 C 371.924 100.667,372.193 100.742,372.250 100.833 C 372.307 100.925,372.611 101.000,372.927 101.000 C 373.242 101.000,373.500 101.075,373.500 101.167 C 373.500 101.259,373.939 101.333,374.482 101.333 C 375.201 101.333,375.490 101.400,375.560 101.583 C 375.642 101.796,376.274 101.833,379.833 101.833 C 383.393 101.833,384.025 101.796,384.106 101.583 C 384.181 101.389,384.512 101.333,385.601 101.333 C 386.423 101.333,387.000 101.265,387.000 101.167 C 387.000 101.075,387.375 101.000,387.833 101.000 C 388.292 101.000,388.667 100.925,388.667 100.833 C 388.667 100.742,389.004 100.667,389.417 100.667 C 389.972 100.667,390.167 100.602,390.167 100.417 C 390.167 100.228,390.370 100.167,391.000 100.167 C 391.458 100.167,391.833 100.092,391.833 100.000 C 391.833 99.908,392.096 99.833,392.417 99.833 C 392.824 99.833,393.000 99.758,393.000 99.583 C 393.000 99.428,393.157 99.333,393.417 99.333 L 393.833 99.333 393.833 97.417 C 393.833 95.824,393.791 95.500,393.583 95.500 C 393.378 95.500,393.333 95.204,393.333 93.833 C 393.333 92.833,393.267 92.167,393.167 92.167 C 393.067 92.167,393.000 91.528,393.000 90.583 C 393.000 89.639,392.933 89.000,392.833 89.000 C 392.735 89.000,392.667 88.387,392.667 87.495 C 392.667 86.311,392.613 85.969,392.417 85.894 C 392.242 85.826,392.167 85.553,392.167 84.982 L 392.167 84.167 391.245 84.167 C 390.579 84.167,390.296 84.236,390.227 84.417 C 390.155 84.605,389.850 84.667,388.982 84.667 C 388.327 84.667,387.833 84.738,387.833 84.833 C 387.833 84.929,387.333 85.000,386.667 85.000 C 385.741 85.000,385.500 85.052,385.500 85.250 C 385.500 85.459,385.157 85.500,383.417 85.500 C 381.676 85.500,381.333 85.459,381.333 85.250 C 381.333 85.075,381.157 85.000,380.750 85.000 C 380.429 85.000,380.167 84.925,380.167 84.833 C 380.167 84.742,379.987 84.667,379.768 84.667 C 379.548 84.667,379.326 84.554,379.273 84.417 C 379.220 84.279,379.062 84.167,378.922 84.167 C 378.782 84.167,378.667 84.092,378.667 84.000 C 378.667 83.908,378.586 83.833,378.488 83.833 C 378.257 83.833,377.833 83.409,377.833 83.179 C 377.833 83.080,377.753 83.000,377.655 83.000 C 377.361 83.000,377.000 82.548,377.000 82.179 C 377.000 81.989,376.925 81.833,376.833 81.833 C 376.742 81.833,376.667 81.606,376.667 81.328 C 376.667 81.033,376.563 80.783,376.417 80.727 C 376.199 80.643,376.167 79.544,376.167 72.232 L 376.167 63.833 384.417 63.833 L 392.667 63.833 392.667 56.250 L 392.667 48.667 384.417 48.667 L 376.167 48.667 376.167 29.250 L 376.167 9.833 367.583 9.833 L 359.000 9.833 359.000 46.149 M109.833 47.667 C 109.833 47.759,109.389 47.833,108.833 47.833 C 108.278 47.833,107.833 47.907,107.833 48.000 C 107.833 48.092,107.493 48.167,107.078 48.167 C 106.561 48.167,106.293 48.245,106.227 48.417 C 106.168 48.571,105.914 48.667,105.566 48.667 C 105.254 48.667,105.000 48.742,105.000 48.833 C 105.000 48.925,104.773 49.000,104.495 49.000 C 104.199 49.000,103.950 49.104,103.894 49.250 C 103.841 49.387,103.618 49.500,103.399 49.500 C 103.179 49.500,103.000 49.575,103.000 49.667 C 103.000 49.758,102.854 49.833,102.677 49.833 C 102.499 49.833,102.307 49.908,102.250 50.000 C 102.193 50.092,102.001 50.167,101.823 50.167 C 101.646 50.167,101.500 50.279,101.500 50.417 C 101.500 50.561,101.349 50.667,101.144 50.667 C 100.948 50.667,100.614 50.854,100.402 51.083 C 100.190 51.313,99.900 51.500,99.758 51.500 C 99.616 51.500,99.500 51.575,99.500 51.667 C 99.500 51.758,99.420 51.833,99.321 51.833 C 99.091 51.833,98.667 52.257,98.667 52.488 C 98.667 52.586,98.554 52.667,98.417 52.667 C 98.279 52.667,98.167 52.742,98.167 52.833 C 98.167 52.925,98.017 53.000,97.833 53.000 C 97.648 53.000,97.500 53.111,97.500 53.250 C 97.500 53.387,97.421 53.500,97.325 53.500 C 97.098 53.500,95.500 55.098,95.500 55.325 C 95.500 55.421,95.388 55.500,95.250 55.500 C 95.111 55.500,95.000 55.648,95.000 55.833 C 95.000 56.017,94.925 56.167,94.833 56.167 C 94.742 56.167,94.667 56.279,94.667 56.417 C 94.667 56.554,94.586 56.667,94.488 56.667 C 94.257 56.667,93.833 57.091,93.833 57.321 C 93.833 57.420,93.758 57.500,93.667 57.500 C 93.575 57.500,93.500 57.650,93.500 57.833 C 93.500 58.019,93.389 58.167,93.250 58.167 C 93.112 58.167,93.000 58.279,93.000 58.417 C 93.000 58.554,92.925 58.667,92.833 58.667 C 92.742 58.667,92.667 58.854,92.667 59.083 C 92.667 59.343,92.572 59.500,92.417 59.500 C 92.278 59.500,92.167 59.648,92.167 59.833 C 92.167 60.017,92.092 60.167,92.000 60.167 C 91.908 60.167,91.833 60.354,91.833 60.583 C 91.833 60.813,91.758 61.000,91.667 61.000 C 91.575 61.000,91.500 61.188,91.500 61.417 C 91.500 61.676,91.406 61.833,91.250 61.833 C 91.094 61.833,91.000 61.991,91.000 62.250 C 91.000 62.479,90.925 62.667,90.833 62.667 C 90.742 62.667,90.667 62.822,90.667 63.012 C 90.667 63.202,90.554 63.470,90.417 63.607 C 90.279 63.745,90.167 64.039,90.167 64.262 C 90.167 64.485,90.092 64.667,90.000 64.667 C 89.908 64.667,89.833 65.004,89.833 65.417 C 89.833 65.829,89.758 66.167,89.667 66.167 C 89.575 66.167,89.500 66.542,89.500 67.000 C 89.500 67.630,89.439 67.833,89.250 67.833 C 89.052 67.833,89.000 68.074,89.000 69.000 C 89.000 69.667,88.929 70.167,88.833 70.167 C 88.727 70.167,88.667 71.694,88.667 74.417 C 88.667 77.139,88.727 78.667,88.833 78.667 C 88.929 78.667,89.000 79.167,89.000 79.833 C 89.000 80.759,89.052 81.000,89.250 81.000 C 89.439 81.000,89.500 81.204,89.500 81.833 C 89.500 82.292,89.575 82.667,89.667 82.667 C 89.758 82.667,89.833 82.929,89.833 83.250 C 89.833 83.571,89.908 83.833,90.000 83.833 C 90.092 83.833,90.167 84.096,90.167 84.417 C 90.167 84.824,90.242 85.000,90.417 85.000 C 90.591 85.000,90.667 85.176,90.667 85.583 C 90.667 85.904,90.742 86.167,90.833 86.167 C 90.925 86.167,91.000 86.354,91.000 86.583 C 91.000 86.843,91.094 87.000,91.250 87.000 C 91.406 87.000,91.500 87.157,91.500 87.417 C 91.500 87.646,91.575 87.833,91.667 87.833 C 91.758 87.833,91.833 87.940,91.833 88.070 C 91.833 88.367,92.374 89.331,92.542 89.332 C 92.610 89.333,92.667 89.446,92.667 89.583 C 92.667 89.721,92.742 89.833,92.833 89.833 C 92.925 89.833,93.000 89.973,93.000 90.143 C 93.000 90.314,93.188 90.594,93.417 90.766 C 93.646 90.938,93.836 91.193,93.839 91.331 C 93.846 91.659,94.233 92.167,94.477 92.167 C 94.581 92.167,94.667 92.247,94.667 92.345 C 94.667 92.576,95.091 93.000,95.321 93.000 C 95.420 93.000,95.502 93.131,95.505 93.292 C 95.511 93.604,95.876 94.167,96.072 94.167 C 96.220 94.167,96.667 94.605,96.667 94.750 C 96.667 94.982,97.161 95.333,97.488 95.333 C 97.678 95.333,97.833 95.414,97.833 95.512 C 97.833 95.709,98.245 96.167,98.422 96.167 C 98.485 96.167,98.683 96.354,98.863 96.583 C 99.043 96.813,99.318 97.000,99.473 97.000 C 99.627 97.000,99.895 97.188,100.067 97.417 C 100.239 97.646,100.520 97.833,100.690 97.833 C 100.861 97.833,101.000 97.908,101.000 98.000 C 101.000 98.092,101.112 98.167,101.250 98.167 C 101.388 98.167,101.500 98.240,101.500 98.330 C 101.500 98.420,101.688 98.541,101.917 98.598 C 102.146 98.656,102.333 98.770,102.333 98.851 C 102.333 98.933,102.483 99.000,102.667 99.000 C 102.850 99.000,103.000 99.075,103.000 99.167 C 103.000 99.258,103.254 99.333,103.566 99.333 C 103.914 99.333,104.168 99.429,104.227 99.583 C 104.280 99.721,104.471 99.833,104.652 99.833 C 104.832 99.833,105.027 99.908,105.083 100.000 C 105.140 100.092,105.412 100.167,105.688 100.167 C 105.965 100.167,106.303 100.279,106.440 100.417 C 106.578 100.554,106.948 100.667,107.262 100.667 C 107.576 100.667,107.833 100.742,107.833 100.833 C 107.833 100.931,108.417 101.000,109.250 101.000 C 110.083 101.000,110.667 101.069,110.667 101.167 C 110.667 101.271,111.639 101.333,113.250 101.333 C 114.861 101.333,115.833 101.271,115.833 101.167 C 115.833 101.070,116.386 101.000,117.157 101.000 C 117.885 101.000,118.527 100.925,118.583 100.833 C 118.640 100.742,118.984 100.667,119.348 100.667 C 119.783 100.667,120.043 100.581,120.106 100.417 C 120.166 100.262,120.419 100.167,120.768 100.167 C 121.079 100.167,121.333 100.092,121.333 100.000 C 121.333 99.908,121.598 99.833,121.922 99.833 C 122.291 99.833,122.546 99.740,122.606 99.583 C 122.659 99.446,122.844 99.333,123.018 99.333 C 123.191 99.333,123.333 99.258,123.333 99.167 C 123.333 99.075,123.521 99.000,123.750 99.000 C 123.979 99.000,124.167 98.925,124.167 98.833 C 124.167 98.742,124.354 98.667,124.583 98.667 C 124.843 98.667,125.000 98.572,125.000 98.417 C 125.000 98.261,125.157 98.167,125.417 98.167 C 125.815 98.167,125.833 98.211,125.833 99.167 L 125.833 100.167 134.417 100.167 L 143.000 100.167 143.000 74.417 L 143.000 48.667 134.417 48.667 L 125.833 48.667 125.833 49.667 C 125.833 50.651,125.522 51.067,125.273 50.417 C 125.220 50.279,125.025 50.167,124.839 50.167 C 124.652 50.167,124.500 50.092,124.500 50.000 C 124.500 49.908,124.350 49.833,124.167 49.833 C 123.983 49.833,123.833 49.758,123.833 49.667 C 123.833 49.575,123.579 49.500,123.268 49.500 C 122.919 49.500,122.666 49.404,122.606 49.250 C 122.554 49.112,122.358 49.000,122.172 49.000 C 121.986 49.000,121.833 48.925,121.833 48.833 C 121.833 48.742,121.533 48.667,121.167 48.667 C 120.685 48.667,120.500 48.597,120.500 48.417 C 120.500 48.231,120.306 48.167,119.750 48.167 C 119.337 48.167,119.000 48.092,119.000 48.000 C 119.000 47.902,118.417 47.833,117.583 47.833 C 116.750 47.833,116.167 47.765,116.167 47.667 C 116.167 47.561,115.000 47.500,113.000 47.500 C 111.000 47.500,109.833 47.561,109.833 47.667 M167.500 47.667 C 167.500 47.759,167.056 47.833,166.500 47.833 C 165.944 47.833,165.500 47.907,165.500 48.000 C 165.500 48.092,165.125 48.167,164.667 48.167 C 164.037 48.167,163.833 48.228,163.833 48.417 C 163.833 48.591,163.657 48.667,163.250 48.667 C 162.929 48.667,162.667 48.742,162.667 48.833 C 162.667 48.925,162.404 49.000,162.083 49.000 C 161.676 49.000,161.500 49.075,161.500 49.250 C 161.500 49.406,161.343 49.500,161.083 49.500 C 160.854 49.500,160.667 49.575,160.667 49.667 C 160.667 49.758,160.479 49.833,160.250 49.833 C 160.021 49.833,159.833 49.908,159.833 50.000 C 159.833 50.092,159.694 50.167,159.523 50.167 C 159.353 50.167,159.073 50.354,158.900 50.583 C 158.728 50.813,158.418 51.000,158.210 51.000 C 158.003 51.000,157.833 51.080,157.833 51.179 C 157.833 51.449,157.392 51.833,157.082 51.833 C 156.783 51.833,155.500 53.045,155.500 53.327 C 155.500 53.422,155.422 53.500,155.326 53.500 C 155.068 53.500,154.391 54.224,154.259 54.639 C 154.196 54.838,154.074 55.000,153.989 55.000 C 153.903 55.000,153.833 55.112,153.833 55.250 C 153.833 55.387,153.758 55.500,153.667 55.500 C 153.575 55.500,153.500 55.650,153.500 55.833 C 153.500 56.019,153.389 56.167,153.250 56.167 C 153.094 56.167,153.000 56.324,153.000 56.583 C 153.000 56.813,152.925 57.000,152.833 57.000 C 152.742 57.000,152.667 57.179,152.667 57.399 C 152.667 57.618,152.554 57.841,152.417 57.894 C 152.271 57.950,152.167 58.199,152.167 58.495 C 152.167 58.773,152.092 59.000,152.000 59.000 C 151.908 59.000,151.833 59.262,151.833 59.583 C 151.833 59.904,151.758 60.167,151.667 60.167 C 151.569 60.167,151.500 60.744,151.500 61.566 C 151.500 62.655,151.445 62.986,151.250 63.060 C 151.055 63.135,151.000 63.469,151.000 64.583 C 151.000 65.698,151.055 66.031,151.250 66.106 C 151.445 66.181,151.500 66.512,151.500 67.601 C 151.500 68.423,151.569 69.000,151.667 69.000 C 151.758 69.000,151.833 69.262,151.833 69.583 C 151.833 69.904,151.908 70.167,152.000 70.167 C 152.092 70.167,152.167 70.429,152.167 70.750 C 152.167 71.157,152.242 71.333,152.417 71.333 C 152.572 71.333,152.667 71.491,152.667 71.750 C 152.667 71.979,152.742 72.167,152.833 72.167 C 152.925 72.167,153.000 72.354,153.000 72.583 C 153.000 72.843,153.094 73.000,153.250 73.000 C 153.387 73.000,153.500 73.141,153.500 73.313 C 153.500 73.652,155.010 75.333,155.314 75.333 C 155.416 75.333,155.500 75.412,155.500 75.508 C 155.500 75.826,157.145 77.333,157.492 77.333 C 157.684 77.333,157.833 77.443,157.833 77.583 C 157.833 77.739,157.991 77.833,158.250 77.833 C 158.479 77.833,158.667 77.908,158.667 78.000 C 158.667 78.092,158.854 78.167,159.083 78.167 C 159.343 78.167,159.500 78.261,159.500 78.417 C 159.500 78.556,159.648 78.667,159.833 78.667 C 160.017 78.667,160.167 78.742,160.167 78.833 C 160.167 78.925,160.354 79.000,160.583 79.000 C 160.813 79.000,161.000 79.075,161.000 79.167 C 161.000 79.258,161.254 79.333,161.566 79.333 C 161.914 79.333,162.168 79.429,162.227 79.583 C 162.293 79.755,162.561 79.833,163.078 79.833 C 163.493 79.833,163.833 79.908,163.833 80.000 C 163.833 80.092,164.272 80.167,164.816 80.167 C 165.535 80.167,165.823 80.234,165.894 80.417 C 165.963 80.597,166.246 80.667,166.911 80.667 C 167.418 80.667,167.833 80.742,167.833 80.833 C 167.833 80.929,168.333 81.000,169.000 81.000 C 169.667 81.000,170.167 81.071,170.167 81.167 C 170.167 81.259,170.613 81.333,171.172 81.333 C 171.912 81.333,172.202 81.399,172.273 81.583 C 172.345 81.772,172.650 81.833,173.518 81.833 C 174.173 81.833,174.667 81.905,174.667 82.000 C 174.667 82.093,175.111 82.167,175.667 82.167 C 176.444 82.167,176.667 82.222,176.667 82.417 C 176.667 82.572,176.824 82.667,177.083 82.667 C 177.313 82.667,177.500 82.742,177.500 82.833 C 177.500 82.925,177.688 83.000,177.917 83.000 C 178.146 83.000,178.333 83.075,178.333 83.167 C 178.333 83.258,178.483 83.333,178.667 83.333 C 178.852 83.333,179.000 83.444,179.000 83.583 C 179.000 83.721,179.112 83.833,179.250 83.833 C 179.387 83.833,179.500 83.979,179.500 84.157 C 179.500 84.335,179.575 84.527,179.667 84.583 C 179.758 84.640,179.833 84.944,179.833 85.260 C 179.833 85.575,179.758 85.833,179.667 85.833 C 179.575 85.833,179.500 86.021,179.500 86.250 C 179.500 86.479,179.420 86.667,179.321 86.667 C 179.091 86.667,178.667 87.091,178.667 87.321 C 178.667 87.420,178.479 87.500,178.250 87.500 C 178.021 87.500,177.833 87.575,177.833 87.667 C 177.833 87.758,177.571 87.833,177.250 87.833 C 176.929 87.833,176.667 87.908,176.667 88.000 C 176.667 88.095,176.165 88.167,175.495 88.167 C 174.607 88.167,174.300 88.227,174.227 88.417 C 174.160 88.592,173.887 88.667,173.316 88.667 C 172.702 88.667,172.500 88.605,172.500 88.417 C 172.500 88.215,172.241 88.167,171.167 88.167 C 170.389 88.167,169.833 88.097,169.833 88.000 C 169.833 87.908,169.571 87.833,169.250 87.833 C 168.929 87.833,168.667 87.758,168.667 87.667 C 168.667 87.575,168.479 87.500,168.250 87.500 C 167.991 87.500,167.833 87.406,167.833 87.250 C 167.833 87.112,167.721 87.000,167.583 87.000 C 167.446 87.000,167.333 86.925,167.333 86.833 C 167.333 86.742,167.183 86.667,167.000 86.667 C 166.815 86.667,166.667 86.556,166.667 86.417 C 166.667 86.279,166.586 86.167,166.488 86.167 C 166.194 86.167,165.833 85.714,165.833 85.345 C 165.833 85.149,165.725 85.000,165.583 85.000 C 165.446 85.000,165.333 84.854,165.333 84.677 C 165.333 84.499,165.258 84.307,165.167 84.250 C 165.075 84.193,165.000 84.001,165.000 83.823 C 165.000 83.646,164.930 83.500,164.843 83.500 C 164.757 83.500,164.664 83.219,164.635 82.875 L 164.583 82.250 160.958 82.205 C 158.731 82.177,157.333 82.097,157.333 81.997 C 157.333 81.895,155.865 81.833,153.417 81.833 L 149.500 81.833 149.500 83.583 C 149.500 84.639,149.566 85.333,149.667 85.333 C 149.758 85.333,149.833 85.708,149.833 86.167 C 149.833 86.625,149.908 87.000,150.000 87.000 C 150.092 87.000,150.167 87.340,150.167 87.755 C 150.167 88.273,150.245 88.541,150.417 88.606 C 150.558 88.660,150.667 88.909,150.667 89.175 C 150.667 89.434,150.742 89.693,150.833 89.750 C 150.925 89.807,151.000 90.001,151.000 90.182 C 151.000 90.363,151.112 90.554,151.250 90.606 C 151.387 90.659,151.500 90.844,151.500 91.018 C 151.500 91.191,151.575 91.333,151.667 91.333 C 151.758 91.333,151.833 91.493,151.833 91.689 C 151.833 91.885,152.021 92.219,152.250 92.431 C 152.479 92.644,152.667 92.933,152.667 93.075 C 152.667 93.217,152.742 93.333,152.833 93.333 C 152.925 93.333,153.000 93.446,153.000 93.583 C 153.000 93.721,153.080 93.833,153.179 93.833 C 153.373 93.833,153.833 94.244,153.833 94.417 C 153.833 94.476,153.927 94.623,154.042 94.743 C 154.156 94.864,154.392 95.159,154.565 95.398 C 154.738 95.638,154.987 95.833,155.119 95.833 C 155.360 95.833,155.833 96.220,155.833 96.417 C 155.833 96.590,156.294 97.000,156.488 97.000 C 156.586 97.000,156.667 97.075,156.667 97.167 C 156.667 97.258,156.854 97.333,157.083 97.333 C 157.313 97.333,157.500 97.414,157.500 97.512 C 157.500 97.806,157.952 98.167,158.321 98.167 C 158.517 98.167,158.667 98.275,158.667 98.417 C 158.667 98.572,158.824 98.667,159.083 98.667 C 159.313 98.667,159.500 98.742,159.500 98.833 C 159.500 98.925,159.650 99.000,159.833 99.000 C 160.017 99.000,160.167 99.075,160.167 99.167 C 160.167 99.258,160.354 99.333,160.583 99.333 C 160.843 99.333,161.000 99.428,161.000 99.583 C 161.000 99.739,161.157 99.833,161.417 99.833 C 161.646 99.833,161.833 99.908,161.833 100.000 C 161.833 100.092,162.088 100.167,162.399 100.167 C 162.748 100.167,163.001 100.262,163.060 100.417 C 163.126 100.588,163.394 100.667,163.911 100.667 C 164.327 100.667,164.667 100.742,164.667 100.833 C 164.667 100.925,165.000 101.000,165.407 101.000 C 165.814 101.000,166.193 101.075,166.250 101.167 C 166.307 101.258,166.949 101.333,167.677 101.333 C 168.742 101.333,169.000 101.382,169.000 101.583 C 169.000 101.800,169.637 101.833,173.732 101.833 C 177.785 101.833,178.478 101.797,178.560 101.583 C 178.633 101.394,178.940 101.333,179.828 101.333 C 180.498 101.333,181.000 101.262,181.000 101.167 C 181.000 101.074,181.444 101.000,182.000 101.000 C 182.556 101.000,183.000 100.926,183.000 100.833 C 183.000 100.742,183.262 100.667,183.583 100.667 C 183.991 100.667,184.167 100.591,184.167 100.417 C 184.167 100.242,184.343 100.167,184.750 100.167 C 185.071 100.167,185.333 100.092,185.333 100.000 C 185.333 99.908,185.588 99.833,185.899 99.833 C 186.248 99.833,186.501 99.738,186.560 99.583 C 186.613 99.446,186.809 99.333,186.995 99.333 C 187.181 99.333,187.333 99.258,187.333 99.167 C 187.333 99.075,187.521 99.000,187.750 99.000 C 187.979 99.000,188.167 98.925,188.167 98.833 C 188.167 98.742,188.306 98.667,188.477 98.667 C 188.647 98.667,188.927 98.479,189.100 98.250 C 189.272 98.021,189.582 97.833,189.790 97.833 C 190.014 97.833,190.167 97.732,190.167 97.583 C 190.167 97.446,190.279 97.333,190.417 97.333 C 190.554 97.333,190.667 97.258,190.667 97.167 C 190.667 97.075,190.777 97.000,190.912 97.000 C 191.294 97.000,193.333 94.904,193.333 94.511 C 193.333 94.322,193.414 94.167,193.512 94.167 C 193.743 94.167,194.167 93.743,194.167 93.512 C 194.167 93.414,194.223 93.333,194.292 93.332 C 194.459 93.331,195.000 92.367,195.000 92.070 C 195.000 91.940,195.075 91.833,195.167 91.833 C 195.258 91.833,195.333 91.654,195.333 91.434 C 195.333 91.215,195.446 90.992,195.583 90.940 C 195.729 90.884,195.833 90.634,195.833 90.339 C 195.833 90.061,195.908 89.833,196.000 89.833 C 196.092 89.833,196.167 89.466,196.167 89.018 C 196.167 88.434,196.240 88.174,196.425 88.103 C 196.771 87.971,196.722 80.323,196.375 80.208 C 196.260 80.170,196.167 79.883,196.167 79.569 C 196.167 79.256,196.092 79.000,196.000 79.000 C 195.908 79.000,195.833 78.737,195.833 78.417 C 195.833 78.009,195.758 77.833,195.583 77.833 C 195.428 77.833,195.333 77.676,195.333 77.417 C 195.333 77.188,195.258 77.000,195.167 77.000 C 195.075 77.000,195.000 76.845,195.000 76.655 C 195.000 76.465,194.906 76.205,194.792 76.077 C 194.339 75.572,194.167 75.343,194.167 75.245 C 194.167 75.076,193.703 74.667,193.512 74.667 C 193.414 74.667,193.333 74.588,193.333 74.492 C 193.333 74.266,192.567 73.500,192.341 73.500 C 192.245 73.500,192.167 73.420,192.167 73.321 C 192.167 73.091,191.743 72.667,191.512 72.667 C 191.414 72.667,191.333 72.586,191.333 72.488 C 191.333 72.194,190.881 71.833,190.512 71.833 C 190.322 71.833,190.167 71.758,190.167 71.667 C 190.167 71.575,189.979 71.500,189.750 71.500 C 189.521 71.500,189.333 71.420,189.333 71.321 C 189.333 71.033,188.884 70.667,188.530 70.667 C 188.350 70.667,188.159 70.554,188.106 70.417 C 188.050 70.271,187.801 70.167,187.505 70.167 C 187.227 70.167,187.000 70.092,187.000 70.000 C 187.000 69.908,186.813 69.833,186.583 69.833 C 186.354 69.833,186.167 69.758,186.167 69.667 C 186.167 69.575,185.912 69.500,185.601 69.500 C 185.252 69.500,184.999 69.404,184.940 69.250 C 184.874 69.079,184.606 69.000,184.089 69.000 C 183.673 69.000,183.333 68.925,183.333 68.833 C 183.333 68.741,182.889 68.667,182.333 68.667 C 181.556 68.667,181.333 68.611,181.333 68.417 C 181.333 68.222,181.111 68.167,180.333 68.167 C 179.778 68.167,179.333 68.093,179.333 68.000 C 179.333 67.905,178.833 67.833,178.167 67.833 C 177.500 67.833,177.000 67.762,177.000 67.667 C 177.000 67.572,176.506 67.500,175.851 67.500 C 174.984 67.500,174.679 67.439,174.606 67.250 C 174.534 67.061,174.227 67.000,173.339 67.000 C 172.668 67.000,172.167 66.929,172.167 66.833 C 172.167 66.742,171.912 66.667,171.601 66.667 C 171.252 66.667,170.999 66.571,170.940 66.417 C 170.884 66.271,170.634 66.167,170.339 66.167 C 170.061 66.167,169.833 66.092,169.833 66.000 C 169.833 65.908,169.678 65.833,169.488 65.833 C 169.119 65.833,168.667 65.473,168.667 65.179 C 168.667 65.080,168.586 65.000,168.488 65.000 C 168.150 65.000,167.833 64.523,167.833 64.012 C 167.833 63.668,167.751 63.500,167.583 63.500 C 167.446 63.500,167.333 63.387,167.333 63.250 C 167.333 63.112,167.446 63.000,167.583 63.000 C 167.724 63.000,167.833 62.851,167.833 62.659 C 167.833 62.097,169.387 60.667,169.997 60.667 C 170.300 60.667,170.550 60.564,170.606 60.417 C 170.679 60.228,170.984 60.167,171.851 60.167 C 172.506 60.167,173.000 60.095,173.000 60.000 C 173.000 59.908,173.112 59.833,173.250 59.833 C 173.387 59.833,173.500 59.908,173.500 60.000 C 173.500 60.097,174.050 60.167,174.816 60.167 C 175.831 60.167,176.153 60.224,176.227 60.417 C 176.287 60.574,176.542 60.667,176.911 60.667 C 177.235 60.667,177.500 60.742,177.500 60.833 C 177.500 60.925,177.646 61.000,177.823 61.000 C 178.001 61.000,178.193 61.075,178.250 61.167 C 178.307 61.258,178.499 61.333,178.677 61.333 C 178.854 61.333,179.000 61.446,179.000 61.583 C 179.000 61.721,179.080 61.833,179.179 61.833 C 179.409 61.833,179.833 62.257,179.833 62.488 C 179.833 62.586,179.908 62.667,180.000 62.667 C 180.092 62.667,180.167 62.782,180.167 62.922 C 180.167 63.062,180.279 63.220,180.417 63.273 C 180.554 63.326,180.667 63.548,180.667 63.768 C 180.667 63.987,180.738 64.167,180.824 64.167 C 180.911 64.167,181.005 64.523,181.033 64.958 L 181.083 65.750 188.625 65.793 L 196.167 65.837 196.167 64.252 C 196.167 63.306,196.099 62.667,196.000 62.667 C 195.907 62.667,195.833 62.222,195.833 61.667 C 195.833 60.889,195.778 60.667,195.583 60.667 C 195.409 60.667,195.333 60.491,195.333 60.083 C 195.333 59.762,195.258 59.500,195.167 59.500 C 195.075 59.500,195.000 59.287,195.000 59.026 C 195.000 58.493,194.558 57.500,194.321 57.500 C 194.236 57.500,194.167 57.313,194.167 57.083 C 194.167 56.854,194.092 56.667,194.000 56.667 C 193.908 56.667,193.833 56.554,193.833 56.417 C 193.833 56.279,193.721 56.167,193.583 56.167 C 193.444 56.167,193.333 56.019,193.333 55.833 C 193.333 55.650,193.258 55.500,193.167 55.500 C 193.075 55.500,193.000 55.420,193.000 55.321 C 193.000 55.091,192.576 54.667,192.345 54.667 C 192.247 54.667,192.167 54.511,192.167 54.321 C 192.167 53.952,191.806 53.500,191.512 53.500 C 191.414 53.500,191.333 53.420,191.333 53.321 C 191.333 53.027,190.881 52.667,190.512 52.667 C 190.322 52.667,190.167 52.586,190.167 52.488 C 190.167 52.257,189.743 51.833,189.512 51.833 C 189.414 51.833,189.333 51.758,189.333 51.667 C 189.333 51.575,189.183 51.500,189.000 51.500 C 188.815 51.500,188.667 51.389,188.667 51.250 C 188.667 51.112,188.554 51.000,188.417 51.000 C 188.279 51.000,188.167 50.925,188.167 50.833 C 188.167 50.742,187.979 50.667,187.750 50.667 C 187.491 50.667,187.333 50.572,187.333 50.417 C 187.333 50.278,187.185 50.167,187.000 50.167 C 186.817 50.167,186.667 50.092,186.667 50.000 C 186.667 49.908,186.479 49.833,186.250 49.833 C 186.021 49.833,185.833 49.758,185.833 49.667 C 185.833 49.575,185.654 49.500,185.434 49.500 C 185.215 49.500,184.992 49.387,184.940 49.250 C 184.884 49.104,184.634 49.000,184.339 49.000 C 184.061 49.000,183.833 48.925,183.833 48.833 C 183.833 48.742,183.533 48.667,183.167 48.667 C 182.685 48.667,182.500 48.597,182.500 48.417 C 182.500 48.231,182.306 48.167,181.750 48.167 C 181.338 48.167,181.000 48.092,181.000 48.000 C 181.000 47.905,180.500 47.833,179.833 47.833 C 179.167 47.833,178.667 47.762,178.667 47.667 C 178.667 47.559,176.694 47.500,173.083 47.500 C 169.472 47.500,167.500 47.559,167.500 47.667 M223.833 47.667 C 223.833 47.764,223.281 47.833,222.510 47.833 C 221.782 47.833,221.140 47.908,221.083 48.000 C 221.027 48.092,220.647 48.167,220.240 48.167 C 219.693 48.167,219.500 48.232,219.500 48.417 C 219.500 48.597,219.315 48.667,218.833 48.667 C 218.467 48.667,218.167 48.742,218.167 48.833 C 218.167 48.925,217.904 49.000,217.583 49.000 C 217.176 49.000,217.000 49.075,217.000 49.250 C 217.000 49.425,216.824 49.500,216.417 49.500 C 216.096 49.500,215.833 49.575,215.833 49.667 C 215.833 49.758,215.688 49.833,215.510 49.833 C 215.332 49.833,215.140 49.908,215.083 50.000 C 215.027 50.092,214.835 50.167,214.657 50.167 C 214.479 50.167,214.333 50.279,214.333 50.417 C 214.333 50.572,214.176 50.667,213.917 50.667 C 213.688 50.667,213.500 50.742,213.500 50.833 C 213.500 50.925,213.387 51.000,213.250 51.000 C 213.112 51.000,213.000 51.112,213.000 51.250 C 213.000 51.387,212.864 51.500,212.698 51.500 C 212.532 51.500,212.235 51.650,212.038 51.833 C 211.842 52.017,211.575 52.167,211.447 52.167 C 211.318 52.167,211.073 52.354,210.900 52.583 C 210.728 52.813,210.493 53.000,210.377 53.000 C 210.261 53.000,210.167 53.078,210.167 53.174 C 210.167 53.400,209.400 54.167,209.174 54.167 C 209.078 54.167,209.000 54.247,209.000 54.345 C 209.000 54.576,208.576 55.000,208.345 55.000 C 208.247 55.000,208.167 55.078,208.167 55.174 C 208.167 55.400,207.400 56.167,207.174 56.167 C 207.078 56.167,207.000 56.245,207.000 56.341 C 207.000 56.437,206.813 56.703,206.583 56.932 C 206.354 57.161,206.167 57.441,206.167 57.554 C 206.167 57.667,206.017 57.868,205.833 58.000 C 205.650 58.132,205.500 58.411,205.500 58.620 C 205.500 58.847,205.399 59.000,205.250 59.000 C 205.112 59.000,205.000 59.112,205.000 59.250 C 205.000 59.387,204.925 59.500,204.833 59.500 C 204.742 59.500,204.667 59.644,204.667 59.819 C 204.667 59.995,204.610 60.164,204.542 60.194 C 204.361 60.275,203.833 61.319,203.833 61.597 C 203.833 61.727,203.758 61.833,203.667 61.833 C 203.575 61.833,203.500 62.096,203.500 62.417 C 203.500 62.824,203.425 63.000,203.250 63.000 C 203.075 63.000,203.000 63.176,203.000 63.583 C 203.000 63.904,202.925 64.167,202.833 64.167 C 202.742 64.167,202.667 64.467,202.667 64.833 C 202.667 65.315,202.597 65.500,202.417 65.500 C 202.242 65.500,202.167 65.676,202.167 66.083 C 202.167 66.404,202.092 66.667,202.000 66.667 C 201.905 66.667,201.833 67.167,201.833 67.833 C 201.833 68.500,201.762 69.000,201.667 69.000 C 201.564 69.000,201.500 69.861,201.500 71.250 C 201.500 73.139,201.460 73.500,201.250 73.500 C 201.065 73.500,201.000 73.694,201.000 74.250 C 201.000 74.806,201.065 75.000,201.250 75.000 C 201.461 75.000,201.500 75.380,201.500 77.417 C 201.500 78.917,201.563 79.833,201.667 79.833 C 201.759 79.833,201.833 80.278,201.833 80.833 C 201.833 81.389,201.907 81.833,202.000 81.833 C 202.092 81.833,202.167 82.171,202.167 82.583 C 202.167 83.139,202.231 83.333,202.417 83.333 C 202.590 83.333,202.667 83.508,202.667 83.907 C 202.667 84.222,202.742 84.527,202.833 84.583 C 202.925 84.640,203.000 84.909,203.000 85.182 C 203.000 85.468,203.105 85.718,203.250 85.773 C 203.387 85.826,203.500 86.048,203.500 86.268 C 203.500 86.487,203.575 86.667,203.667 86.667 C 203.758 86.667,203.833 86.817,203.833 87.000 C 203.833 87.183,203.908 87.333,204.000 87.333 C 204.092 87.333,204.167 87.521,204.167 87.750 C 204.167 88.009,204.261 88.167,204.417 88.167 C 204.572 88.167,204.667 88.324,204.667 88.583 C 204.667 88.813,204.742 89.000,204.833 89.000 C 204.925 89.000,205.000 89.139,205.000 89.310 C 205.000 89.480,205.188 89.761,205.417 89.933 C 205.646 90.105,205.833 90.383,205.833 90.551 C 205.833 90.887,206.207 91.333,206.488 91.333 C 206.586 91.333,206.667 91.490,206.667 91.682 C 206.667 91.892,207.128 92.483,207.833 93.178 C 208.475 93.810,209.000 94.403,209.000 94.497 C 209.000 94.590,209.081 94.667,209.181 94.667 C 209.280 94.667,209.616 94.929,209.928 95.250 C 210.239 95.571,210.608 95.833,210.747 95.833 C 210.886 95.833,211.000 95.908,211.000 96.000 C 211.000 96.092,211.112 96.167,211.250 96.167 C 211.387 96.167,211.500 96.247,211.500 96.345 C 211.500 96.626,211.946 97.000,212.282 97.000 C 212.450 97.000,212.728 97.188,212.900 97.417 C 213.073 97.646,213.353 97.833,213.523 97.833 C 213.694 97.833,213.833 97.908,213.833 98.000 C 213.833 98.092,214.021 98.167,214.250 98.167 C 214.509 98.167,214.667 98.261,214.667 98.417 C 214.667 98.572,214.824 98.667,215.083 98.667 C 215.313 98.667,215.500 98.742,215.500 98.833 C 215.500 98.925,215.646 99.000,215.823 99.000 C 216.001 99.000,216.193 99.075,216.250 99.167 C 216.307 99.258,216.611 99.333,216.927 99.333 C 217.325 99.333,217.500 99.410,217.500 99.583 C 217.500 99.758,217.676 99.833,218.083 99.833 C 218.404 99.833,218.667 99.908,218.667 100.000 C 218.667 100.092,218.921 100.167,219.232 100.167 C 219.581 100.167,219.834 100.262,219.894 100.417 C 219.959 100.588,220.227 100.667,220.745 100.667 C 221.160 100.667,221.500 100.742,221.500 100.833 C 221.500 100.929,222.000 101.000,222.667 101.000 C 223.333 101.000,223.833 101.071,223.833 101.167 C 223.833 101.273,225.333 101.333,228.000 101.333 C 230.667 101.333,232.167 101.273,232.167 101.167 C 232.167 101.072,232.663 101.000,233.323 101.000 C 233.960 101.000,234.527 100.925,234.583 100.833 C 234.640 100.742,234.984 100.667,235.348 100.667 C 235.783 100.667,236.043 100.581,236.106 100.417 C 236.166 100.262,236.419 100.167,236.768 100.167 C 237.079 100.167,237.333 100.092,237.333 100.000 C 237.333 99.908,237.598 99.833,237.922 99.833 C 238.291 99.833,238.546 99.740,238.606 99.583 C 238.666 99.429,238.919 99.333,239.268 99.333 C 239.579 99.333,239.833 99.258,239.833 99.167 C 239.833 99.075,239.934 99.000,240.058 99.000 C 240.392 99.000,241.333 98.499,241.333 98.321 C 241.333 98.236,241.493 98.167,241.689 98.167 C 241.885 98.167,242.219 97.979,242.431 97.750 C 242.644 97.521,242.933 97.333,243.075 97.333 C 243.217 97.333,243.333 97.258,243.333 97.167 C 243.333 97.075,243.414 97.000,243.512 97.000 C 243.610 97.000,243.795 96.906,243.923 96.792 C 244.428 96.339,244.657 96.167,244.755 96.167 C 244.924 96.167,245.333 95.703,245.333 95.512 C 245.333 95.414,245.412 95.333,245.508 95.333 C 245.735 95.333,247.333 93.735,247.333 93.508 C 247.333 93.412,247.414 93.333,247.512 93.333 C 247.806 93.333,248.167 92.881,248.167 92.512 C 248.167 92.322,248.247 92.167,248.345 92.167 C 248.576 92.167,249.000 91.743,249.000 91.512 C 249.000 91.414,249.075 91.333,249.167 91.333 C 249.258 91.333,249.333 91.191,249.333 91.018 C 249.333 90.844,249.446 90.659,249.583 90.606 C 249.721 90.554,249.833 90.358,249.833 90.172 C 249.833 89.986,249.908 89.833,250.000 89.833 C 250.092 89.833,250.167 89.646,250.167 89.417 C 250.167 89.157,250.261 89.000,250.417 89.000 C 250.572 89.000,250.667 88.843,250.667 88.583 C 250.667 88.354,250.742 88.167,250.833 88.167 C 250.925 88.167,251.000 87.979,251.000 87.750 C 251.000 87.521,251.075 87.333,251.167 87.333 C 251.258 87.333,251.333 87.079,251.333 86.768 C 251.333 86.419,251.429 86.166,251.583 86.106 C 251.747 86.043,251.833 85.783,251.833 85.348 C 251.833 84.984,251.908 84.640,252.000 84.583 C 252.092 84.527,252.167 84.260,252.167 83.990 L 252.167 83.500 243.833 83.500 C 238.389 83.500,235.500 83.558,235.500 83.667 C 235.500 83.758,235.420 83.833,235.321 83.833 C 235.091 83.833,234.667 84.257,234.667 84.488 C 234.667 84.586,234.586 84.667,234.488 84.667 C 234.294 84.667,233.833 85.077,233.833 85.250 C 233.833 85.482,233.339 85.833,233.012 85.833 C 232.822 85.833,232.667 85.908,232.667 86.000 C 232.667 86.092,232.514 86.167,232.328 86.167 C 232.142 86.167,231.946 86.279,231.894 86.417 C 231.841 86.554,231.618 86.667,231.399 86.667 C 231.179 86.667,231.000 86.742,231.000 86.833 C 231.000 86.938,229.944 87.000,228.167 87.000 C 226.389 87.000,225.333 86.938,225.333 86.833 C 225.333 86.742,225.071 86.667,224.750 86.667 C 224.343 86.667,224.167 86.591,224.167 86.417 C 224.167 86.242,223.991 86.167,223.583 86.167 C 223.262 86.167,223.000 86.092,223.000 86.000 C 223.000 85.908,222.887 85.833,222.750 85.833 C 222.612 85.833,222.500 85.758,222.500 85.667 C 222.500 85.575,222.350 85.500,222.167 85.500 C 221.981 85.500,221.833 85.389,221.833 85.250 C 221.833 85.112,221.753 85.000,221.655 85.000 C 221.424 85.000,221.000 84.576,221.000 84.345 C 221.000 84.247,220.944 84.167,220.875 84.166 C 220.662 84.166,219.833 83.388,219.833 83.189 C 219.833 83.085,219.721 83.000,219.583 83.000 C 219.428 83.000,219.333 82.843,219.333 82.583 C 219.333 82.354,219.258 82.167,219.167 82.167 C 219.075 82.167,219.000 82.017,219.000 81.833 C 219.000 81.650,218.933 81.500,218.851 81.500 C 218.770 81.500,218.656 81.313,218.598 81.083 C 218.541 80.854,218.420 80.667,218.330 80.667 C 218.240 80.667,218.167 80.479,218.167 80.250 L 218.167 79.833 235.167 79.833 L 252.167 79.833 252.167 79.000 C 252.167 78.370,252.228 78.167,252.417 78.167 C 252.632 78.167,252.667 77.601,252.667 74.078 C 252.667 70.598,252.629 69.975,252.417 69.894 C 252.222 69.819,252.167 69.488,252.167 68.399 C 252.167 67.577,252.098 67.000,252.000 67.000 C 251.908 67.000,251.833 66.662,251.833 66.250 C 251.833 65.694,251.769 65.500,251.583 65.500 C 251.394 65.500,251.333 65.296,251.333 64.667 C 251.333 64.208,251.258 63.833,251.167 63.833 C 251.075 63.833,251.000 63.646,251.000 63.417 C 251.000 63.188,250.925 63.000,250.833 63.000 C 250.742 63.000,250.667 62.773,250.667 62.495 C 250.667 62.199,250.563 61.950,250.417 61.894 C 250.279 61.841,250.167 61.618,250.167 61.399 C 250.167 61.179,250.092 61.000,250.000 61.000 C 249.908 61.000,249.833 60.813,249.833 60.583 C 249.833 60.324,249.739 60.167,249.583 60.167 C 249.444 60.167,249.333 60.019,249.333 59.833 C 249.333 59.650,249.258 59.500,249.167 59.500 C 249.075 59.500,249.000 59.340,249.000 59.144 C 249.000 58.948,248.813 58.614,248.583 58.402 C 248.354 58.190,248.167 57.900,248.167 57.758 C 248.167 57.616,248.092 57.500,248.000 57.500 C 247.908 57.500,247.833 57.387,247.833 57.250 C 247.833 57.112,247.753 57.000,247.655 57.000 C 247.385 57.000,247.000 56.559,247.000 56.250 C 247.000 55.941,246.615 55.500,246.345 55.500 C 246.247 55.500,246.167 55.420,246.167 55.321 C 246.167 55.091,245.743 54.667,245.512 54.667 C 245.414 54.667,245.333 54.588,245.333 54.492 C 245.333 54.266,244.567 53.500,244.341 53.500 C 244.245 53.500,244.167 53.420,244.167 53.321 C 244.167 53.027,243.714 52.667,243.345 52.667 C 243.155 52.667,243.000 52.567,243.000 52.445 C 243.000 52.323,242.813 52.123,242.583 52.000 C 242.354 51.877,242.167 51.715,242.167 51.639 C 242.167 51.562,241.979 51.500,241.750 51.500 C 241.491 51.500,241.333 51.406,241.333 51.250 C 241.333 51.111,241.185 51.000,241.000 51.000 C 240.817 51.000,240.667 50.925,240.667 50.833 C 240.667 50.742,240.562 50.667,240.434 50.667 C 240.307 50.667,240.159 50.554,240.106 50.417 C 240.054 50.279,239.858 50.167,239.672 50.167 C 239.486 50.167,239.333 50.092,239.333 50.000 C 239.333 49.908,239.071 49.833,238.750 49.833 C 238.429 49.833,238.167 49.758,238.167 49.667 C 238.167 49.575,237.979 49.500,237.750 49.500 C 237.491 49.500,237.333 49.406,237.333 49.250 C 237.333 49.075,237.157 49.000,236.750 49.000 C 236.429 49.000,236.167 48.925,236.167 48.833 C 236.167 48.742,235.904 48.667,235.583 48.667 C 235.176 48.667,235.000 48.591,235.000 48.417 C 235.000 48.228,234.796 48.167,234.167 48.167 C 233.708 48.167,233.333 48.092,233.333 48.000 C 233.333 47.903,232.778 47.833,232.000 47.833 C 231.222 47.833,230.667 47.764,230.667 47.667 C 230.667 47.561,229.417 47.500,227.250 47.500 C 225.083 47.500,223.833 47.561,223.833 47.667 M274.667 47.667 C 274.667 47.759,274.222 47.833,273.667 47.833 C 273.111 47.833,272.667 47.907,272.667 48.000 C 272.667 48.092,272.292 48.167,271.833 48.167 C 271.204 48.167,271.000 48.228,271.000 48.417 C 271.000 48.591,270.824 48.667,270.417 48.667 C 270.096 48.667,269.833 48.742,269.833 48.833 C 269.833 48.925,269.571 49.000,269.250 49.000 C 268.843 49.000,268.667 49.075,268.667 49.250 C 268.667 49.406,268.509 49.500,268.250 49.500 C 268.021 49.500,267.833 49.575,267.833 49.667 C 267.833 49.758,267.646 49.833,267.417 49.833 C 267.188 49.833,267.000 49.908,267.000 50.000 C 267.000 50.092,266.848 50.167,266.661 50.167 C 266.475 50.167,266.280 50.279,266.227 50.417 C 266.174 50.554,265.989 50.667,265.816 50.667 C 265.642 50.667,265.500 50.742,265.500 50.833 C 265.500 50.925,265.387 51.000,265.250 51.000 C 265.112 51.000,265.000 51.112,265.000 51.250 C 265.000 51.389,264.852 51.500,264.667 51.500 C 264.483 51.500,264.333 51.575,264.333 51.667 C 264.333 51.758,264.253 51.833,264.155 51.833 C 263.924 51.833,263.500 52.257,263.500 52.488 C 263.500 52.586,263.420 52.667,263.321 52.667 C 263.091 52.667,262.667 53.091,262.667 53.321 C 262.667 53.420,262.588 53.500,262.492 53.500 C 262.266 53.500,261.500 54.266,261.500 54.492 C 261.500 54.588,261.387 54.667,261.250 54.667 C 261.109 54.667,261.000 54.816,261.000 55.008 C 261.000 55.195,260.813 55.536,260.583 55.765 C 260.354 55.994,260.167 56.291,260.167 56.424 C 260.167 56.558,260.092 56.667,260.000 56.667 C 259.908 56.667,259.833 56.854,259.833 57.083 C 259.833 57.313,259.758 57.500,259.667 57.500 C 259.575 57.500,259.500 57.762,259.500 58.083 C 259.500 58.491,259.425 58.667,259.250 58.667 C 259.075 58.667,259.000 58.843,259.000 59.250 C 259.000 59.571,258.925 59.833,258.833 59.833 C 258.741 59.833,258.667 60.272,258.667 60.816 C 258.667 61.535,258.600 61.823,258.417 61.894 C 258.209 61.973,258.167 62.440,258.167 64.661 C 258.167 66.925,258.205 67.333,258.417 67.333 C 258.611 67.333,258.667 67.556,258.667 68.333 C 258.667 68.889,258.741 69.333,258.833 69.333 C 258.925 69.333,259.000 69.598,259.000 69.922 C 259.000 70.291,259.093 70.546,259.250 70.606 C 259.404 70.666,259.500 70.919,259.500 71.268 C 259.500 71.579,259.575 71.833,259.667 71.833 C 259.758 71.833,259.833 71.940,259.833 72.070 C 259.833 72.367,260.374 73.331,260.542 73.332 C 260.610 73.333,260.667 73.414,260.667 73.512 C 260.667 73.743,261.091 74.167,261.321 74.167 C 261.420 74.167,261.500 74.317,261.500 74.500 C 261.500 74.932,262.734 76.167,263.167 76.167 C 263.350 76.167,263.500 76.252,263.500 76.356 C 263.500 76.631,264.368 77.333,264.708 77.333 C 264.869 77.333,265.000 77.446,265.000 77.583 C 265.000 77.721,265.112 77.833,265.250 77.833 C 265.387 77.833,265.500 77.908,265.500 78.000 C 265.500 78.092,265.688 78.167,265.917 78.167 C 266.146 78.167,266.334 78.223,266.334 78.292 C 266.336 78.504,267.338 79.000,267.764 79.000 C 267.985 79.000,268.167 79.075,268.167 79.167 C 268.167 79.258,268.467 79.333,268.833 79.333 C 269.315 79.333,269.500 79.403,269.500 79.583 C 269.500 79.769,269.694 79.833,270.250 79.833 C 270.662 79.833,271.000 79.908,271.000 80.000 C 271.000 80.092,271.343 80.167,271.762 80.167 C 272.217 80.167,272.625 80.267,272.774 80.417 C 272.940 80.583,273.356 80.667,274.012 80.667 C 274.560 80.667,275.000 80.741,275.000 80.833 C 275.000 80.926,275.444 81.000,276.000 81.000 C 276.556 81.000,277.000 81.074,277.000 81.167 C 277.000 81.263,277.528 81.333,278.250 81.333 C 279.250 81.333,279.500 81.383,279.500 81.583 C 279.500 81.778,279.722 81.833,280.500 81.833 C 281.056 81.833,281.500 81.907,281.500 82.000 C 281.500 82.092,281.918 82.167,282.429 82.167 C 283.032 82.167,283.445 82.254,283.607 82.417 C 283.745 82.554,284.039 82.667,284.262 82.667 C 284.485 82.667,284.667 82.742,284.667 82.833 C 284.667 82.925,284.817 83.000,285.000 83.000 C 285.417 83.000,286.667 84.265,286.667 84.687 C 286.667 84.859,286.742 85.000,286.833 85.000 C 286.925 85.000,287.000 85.188,287.000 85.417 C 287.000 85.646,286.925 85.833,286.833 85.833 C 286.742 85.833,286.667 86.021,286.667 86.250 C 286.667 86.509,286.572 86.667,286.417 86.667 C 286.279 86.667,286.167 86.742,286.167 86.833 C 286.167 86.925,286.017 87.000,285.833 87.000 C 285.648 87.000,285.500 87.111,285.500 87.250 C 285.500 87.388,285.387 87.500,285.250 87.500 C 285.112 87.500,285.000 87.575,285.000 87.667 C 285.000 87.758,284.737 87.833,284.417 87.833 C 284.096 87.833,283.833 87.908,283.833 88.000 C 283.833 88.095,283.333 88.167,282.667 88.167 C 281.741 88.167,281.500 88.218,281.500 88.417 C 281.500 88.613,281.269 88.667,280.417 88.667 C 279.565 88.667,279.333 88.613,279.333 88.417 C 279.333 88.218,279.093 88.167,278.167 88.167 C 277.500 88.167,277.000 88.095,277.000 88.000 C 277.000 87.908,276.737 87.833,276.417 87.833 C 276.096 87.833,275.833 87.758,275.833 87.667 C 275.833 87.575,275.646 87.500,275.417 87.500 C 275.157 87.500,275.000 87.406,275.000 87.250 C 275.000 87.108,274.851 87.000,274.655 87.000 C 274.286 87.000,273.833 86.639,273.833 86.345 C 273.833 86.247,273.755 86.167,273.659 86.167 C 273.355 86.167,272.667 85.362,272.667 85.008 C 272.667 84.816,272.557 84.667,272.417 84.667 C 272.261 84.667,272.167 84.509,272.167 84.250 C 272.167 84.021,272.092 83.833,272.000 83.833 C 271.908 83.833,271.833 83.571,271.833 83.250 C 271.833 82.843,271.758 82.667,271.583 82.667 C 271.446 82.667,271.333 82.554,271.333 82.417 C 271.333 82.203,270.853 82.167,268.010 82.167 C 265.974 82.167,264.646 82.102,264.583 82.000 C 264.391 81.689,256.388 81.783,256.268 82.097 C 256.085 82.572,256.162 83.175,256.417 83.273 C 256.611 83.348,256.667 83.678,256.667 84.768 C 256.667 85.589,256.735 86.167,256.833 86.167 C 256.925 86.167,257.000 86.507,257.000 86.922 C 257.000 87.439,257.079 87.707,257.250 87.773 C 257.404 87.832,257.500 88.086,257.500 88.434 C 257.500 88.746,257.575 89.000,257.667 89.000 C 257.758 89.000,257.833 89.188,257.833 89.417 C 257.833 89.646,257.908 89.833,258.000 89.833 C 258.092 89.833,258.167 89.986,258.167 90.172 C 258.167 90.358,258.279 90.554,258.417 90.606 C 258.554 90.659,258.667 90.844,258.667 91.018 C 258.667 91.191,258.742 91.333,258.833 91.333 C 258.925 91.333,259.000 91.521,259.000 91.750 C 259.000 92.009,259.094 92.167,259.250 92.167 C 259.399 92.167,259.500 92.320,259.500 92.547 C 259.500 92.755,259.650 93.035,259.833 93.167 C 260.017 93.299,260.167 93.503,260.167 93.620 C 260.167 93.737,260.279 93.833,260.417 93.833 C 260.556 93.833,260.667 93.981,260.667 94.167 C 260.667 94.350,260.742 94.500,260.833 94.500 C 260.925 94.500,261.000 94.612,261.000 94.750 C 261.000 94.888,261.080 95.000,261.179 95.000 C 261.409 95.000,261.833 95.424,261.833 95.655 C 261.833 95.753,261.890 95.833,261.958 95.834 C 262.027 95.834,262.301 96.021,262.568 96.250 C 262.834 96.479,263.134 96.668,263.234 96.670 C 263.335 96.672,263.641 96.935,263.915 97.254 C 264.189 97.572,264.545 97.833,264.707 97.833 C 264.868 97.833,265.000 97.908,265.000 98.000 C 265.000 98.092,265.112 98.167,265.250 98.167 C 265.387 98.167,265.500 98.223,265.501 98.292 C 265.502 98.459,266.466 99.000,266.764 99.000 C 266.894 99.000,267.000 99.075,267.000 99.167 C 267.000 99.258,267.179 99.333,267.399 99.333 C 267.618 99.333,267.841 99.446,267.894 99.583 C 267.950 99.729,268.199 99.833,268.495 99.833 C 268.773 99.833,269.000 99.908,269.000 100.000 C 269.000 100.092,269.254 100.167,269.566 100.167 C 269.914 100.167,270.168 100.262,270.227 100.417 C 270.287 100.574,270.542 100.667,270.911 100.667 C 271.235 100.667,271.500 100.742,271.500 100.833 C 271.500 100.926,271.944 101.000,272.500 101.000 C 273.056 101.000,273.500 101.074,273.500 101.167 C 273.500 101.262,273.994 101.333,274.649 101.333 C 275.516 101.333,275.821 101.395,275.894 101.583 C 275.976 101.797,276.662 101.833,280.661 101.833 C 284.703 101.833,285.333 101.800,285.333 101.583 C 285.333 101.381,285.602 101.333,286.750 101.333 C 287.583 101.333,288.167 101.265,288.167 101.167 C 288.167 101.075,288.542 101.000,289.000 101.000 C 289.458 101.000,289.833 100.925,289.833 100.833 C 289.833 100.742,290.136 100.667,290.505 100.667 C 290.949 100.667,291.210 100.582,291.273 100.417 C 291.332 100.264,291.584 100.167,291.925 100.167 C 292.230 100.167,292.527 100.092,292.583 100.000 C 292.640 99.908,292.832 99.833,293.010 99.833 C 293.188 99.833,293.333 99.721,293.333 99.583 C 293.333 99.409,293.509 99.333,293.917 99.333 C 294.237 99.333,294.500 99.258,294.500 99.167 C 294.500 99.075,294.688 99.000,294.917 99.000 C 295.146 99.000,295.333 98.925,295.333 98.833 C 295.333 98.742,295.446 98.667,295.583 98.667 C 295.721 98.667,295.833 98.554,295.833 98.417 C 295.833 98.261,295.991 98.167,296.250 98.167 C 296.479 98.167,296.667 98.092,296.667 98.000 C 296.667 97.908,296.782 97.833,296.922 97.833 C 297.062 97.833,297.220 97.721,297.273 97.583 C 297.326 97.446,297.442 97.333,297.532 97.333 C 297.621 97.333,297.949 97.071,298.261 96.750 C 298.573 96.429,298.903 96.167,298.995 96.167 C 299.248 96.167,299.833 95.621,299.833 95.386 C 299.833 95.272,300.171 94.832,300.583 94.408 C 300.996 93.983,301.333 93.493,301.333 93.318 C 301.333 93.143,301.446 93.000,301.583 93.000 C 301.739 93.000,301.833 92.843,301.833 92.583 C 301.833 92.354,301.908 92.167,302.000 92.167 C 302.092 92.167,302.167 91.979,302.167 91.750 C 302.167 91.491,302.261 91.333,302.417 91.333 C 302.554 91.333,302.667 91.188,302.667 91.010 C 302.667 90.832,302.742 90.640,302.833 90.583 C 302.925 90.527,303.000 90.222,303.000 89.907 C 303.000 89.591,303.075 89.333,303.167 89.333 C 303.259 89.333,303.333 88.889,303.333 88.333 C 303.333 87.556,303.389 87.333,303.583 87.333 C 303.797 87.333,303.833 86.870,303.833 84.167 C 303.833 81.463,303.797 81.000,303.583 81.000 C 303.398 81.000,303.333 80.806,303.333 80.250 C 303.333 79.837,303.258 79.500,303.167 79.500 C 303.075 79.500,303.000 79.200,303.000 78.833 C 303.000 78.467,302.925 78.167,302.833 78.167 C 302.742 78.167,302.667 77.985,302.667 77.762 C 302.667 77.539,302.554 77.245,302.417 77.107 C 302.279 76.970,302.164 76.758,302.161 76.637 C 302.154 76.335,301.755 75.833,301.523 75.833 C 301.419 75.833,301.333 75.680,301.333 75.492 C 301.333 75.145,299.826 73.500,299.508 73.500 C 299.412 73.500,299.333 73.420,299.333 73.321 C 299.333 73.091,298.909 72.667,298.679 72.667 C 298.580 72.667,298.500 72.554,298.500 72.417 C 298.500 72.278,298.352 72.167,298.167 72.167 C 297.983 72.167,297.833 72.092,297.833 72.000 C 297.833 71.908,297.721 71.833,297.583 71.833 C 297.446 71.833,297.333 71.758,297.333 71.667 C 297.333 71.575,297.191 71.500,297.018 71.500 C 296.844 71.500,296.659 71.387,296.606 71.250 C 296.554 71.112,296.358 71.000,296.172 71.000 C 295.986 71.000,295.833 70.925,295.833 70.833 C 295.833 70.742,295.646 70.667,295.417 70.667 C 295.157 70.667,295.000 70.572,295.000 70.417 C 295.000 70.261,294.843 70.167,294.583 70.167 C 294.354 70.167,294.167 70.092,294.167 70.000 C 294.167 69.908,293.904 69.833,293.583 69.833 C 293.262 69.833,293.000 69.758,293.000 69.667 C 293.000 69.575,292.737 69.500,292.417 69.500 C 292.009 69.500,291.833 69.425,291.833 69.250 C 291.833 69.069,291.648 69.000,291.167 69.000 C 290.800 69.000,290.500 68.925,290.500 68.833 C 290.500 68.742,290.096 68.667,289.601 68.667 C 288.956 68.667,288.675 68.596,288.606 68.417 C 288.534 68.227,288.227 68.167,287.339 68.167 C 286.668 68.167,286.167 68.095,286.167 68.000 C 286.167 67.905,285.667 67.833,285.000 67.833 C 284.333 67.833,283.833 67.762,283.833 67.667 C 283.833 67.574,283.395 67.500,282.851 67.500 C 282.132 67.500,281.843 67.433,281.773 67.250 C 281.700 67.061,281.393 67.000,280.505 67.000 C 279.835 67.000,279.333 66.929,279.333 66.833 C 279.333 66.742,278.996 66.667,278.583 66.667 C 278.028 66.667,277.833 66.602,277.833 66.417 C 277.833 66.261,277.676 66.167,277.417 66.167 C 277.188 66.167,277.000 66.092,277.000 66.000 C 277.000 65.908,276.845 65.833,276.655 65.833 C 276.286 65.833,275.833 65.473,275.833 65.179 C 275.833 65.080,275.753 65.000,275.655 65.000 C 275.361 65.000,275.000 64.548,275.000 64.179 C 275.000 63.989,274.925 63.833,274.833 63.833 C 274.742 63.833,274.667 63.571,274.667 63.250 C 274.667 62.929,274.742 62.667,274.833 62.667 C 274.925 62.667,275.000 62.479,275.000 62.250 C 275.000 62.021,275.075 61.833,275.167 61.833 C 275.258 61.833,275.333 61.721,275.333 61.583 C 275.333 61.446,275.446 61.333,275.583 61.333 C 275.721 61.333,275.833 61.258,275.833 61.167 C 275.833 61.075,275.979 61.000,276.157 61.000 C 276.335 61.000,276.527 60.925,276.583 60.833 C 276.640 60.742,276.832 60.667,277.010 60.667 C 277.188 60.667,277.333 60.554,277.333 60.417 C 277.333 60.214,277.602 60.167,278.750 60.167 C 279.583 60.167,280.167 60.098,280.167 60.000 C 280.167 59.908,280.279 59.833,280.417 59.833 C 280.554 59.833,280.667 59.908,280.667 60.000 C 280.667 60.098,281.250 60.167,282.083 60.167 C 283.231 60.167,283.500 60.214,283.500 60.417 C 283.500 60.591,283.676 60.667,284.083 60.667 C 284.404 60.667,284.667 60.742,284.667 60.833 C 284.667 60.925,284.836 61.000,285.044 61.000 C 285.251 61.000,285.561 61.187,285.734 61.417 C 285.906 61.646,286.154 61.833,286.285 61.833 C 286.632 61.833,287.000 62.256,287.000 62.655 C 287.000 62.851,287.108 63.000,287.250 63.000 C 287.387 63.000,287.500 63.146,287.500 63.323 C 287.500 63.501,287.575 63.693,287.667 63.750 C 287.758 63.807,287.833 64.111,287.833 64.427 C 287.833 64.742,287.903 65.000,287.988 65.000 C 288.074 65.000,288.167 65.169,288.197 65.375 L 288.250 65.750 295.792 65.793 L 303.333 65.837 303.333 64.668 C 303.333 64.001,303.262 63.500,303.167 63.500 C 303.072 63.500,303.000 63.003,303.000 62.343 C 303.000 61.707,302.925 61.140,302.833 61.083 C 302.742 61.027,302.667 60.757,302.667 60.485 C 302.667 60.198,302.561 59.949,302.417 59.894 C 302.262 59.834,302.167 59.581,302.167 59.232 C 302.167 58.921,302.092 58.667,302.000 58.667 C 301.908 58.667,301.833 58.479,301.833 58.250 C 301.833 57.991,301.739 57.833,301.583 57.833 C 301.428 57.833,301.333 57.676,301.333 57.417 C 301.333 57.188,301.258 57.000,301.167 57.000 C 301.075 57.000,301.000 56.845,301.000 56.655 C 301.000 56.286,300.639 55.833,300.345 55.833 C 300.247 55.833,300.167 55.678,300.167 55.488 C 300.167 55.119,299.806 54.667,299.512 54.667 C 299.414 54.667,299.333 54.588,299.333 54.492 C 299.333 54.266,298.567 53.500,298.341 53.500 C 298.245 53.500,298.167 53.420,298.167 53.321 C 298.167 53.091,297.743 52.667,297.512 52.667 C 297.414 52.667,297.333 52.586,297.333 52.488 C 297.333 52.257,296.909 51.833,296.679 51.833 C 296.580 51.833,296.500 51.758,296.500 51.667 C 296.500 51.575,296.350 51.500,296.167 51.500 C 295.981 51.500,295.833 51.389,295.833 51.250 C 295.833 51.112,295.721 51.000,295.583 51.000 C 295.446 51.000,295.333 50.925,295.333 50.833 C 295.333 50.742,295.191 50.667,295.018 50.667 C 294.844 50.667,294.659 50.554,294.606 50.417 C 294.554 50.279,294.358 50.167,294.172 50.167 C 293.986 50.167,293.833 50.092,293.833 50.000 C 293.833 49.908,293.646 49.833,293.417 49.833 C 293.188 49.833,293.000 49.758,293.000 49.667 C 293.000 49.575,292.737 49.500,292.417 49.500 C 292.009 49.500,291.833 49.425,291.833 49.250 C 291.833 49.094,291.676 49.000,291.417 49.000 C 291.188 49.000,291.000 48.925,291.000 48.833 C 291.000 48.742,290.625 48.667,290.167 48.667 C 289.537 48.667,289.333 48.606,289.333 48.417 C 289.333 48.231,289.139 48.167,288.583 48.167 C 288.171 48.167,287.833 48.092,287.833 48.000 C 287.833 47.907,287.389 47.833,286.833 47.833 C 286.278 47.833,285.833 47.759,285.833 47.667 C 285.833 47.559,283.861 47.500,280.250 47.500 C 276.639 47.500,274.667 47.559,274.667 47.667 M229.500 61.583 C 229.500 61.769,229.694 61.833,230.250 61.833 C 230.662 61.833,231.000 61.908,231.000 62.000 C 231.000 62.092,231.188 62.167,231.417 62.167 C 231.676 62.167,231.833 62.261,231.833 62.417 C 231.833 62.566,231.987 62.667,232.213 62.667 C 232.422 62.667,232.701 62.817,232.833 63.000 C 232.965 63.183,233.170 63.333,233.287 63.333 C 233.404 63.333,233.500 63.415,233.500 63.515 C 233.500 63.615,233.838 64.024,234.250 64.425 C 234.662 64.826,235.000 65.272,235.000 65.416 C 235.000 65.559,235.112 65.720,235.250 65.773 C 235.387 65.826,235.500 66.007,235.500 66.175 C 235.500 66.343,235.575 66.527,235.667 66.583 C 235.758 66.640,235.833 66.832,235.833 67.010 C 235.833 67.188,235.901 67.333,235.984 67.333 C 236.067 67.333,236.160 67.708,236.192 68.167 L 236.250 69.000 227.042 69.000 L 217.833 69.000 217.833 68.583 C 217.833 68.354,217.908 68.167,218.000 68.167 C 218.092 68.167,218.167 67.979,218.167 67.750 C 218.167 67.521,218.236 67.333,218.321 67.333 C 218.499 67.333,219.000 66.392,219.000 66.058 C 219.000 65.934,219.075 65.833,219.167 65.833 C 219.258 65.833,219.333 65.721,219.333 65.583 C 219.333 65.446,219.446 65.333,219.583 65.333 C 219.722 65.333,219.833 65.185,219.833 65.000 C 219.833 64.817,219.908 64.667,220.000 64.667 C 220.092 64.667,220.167 64.554,220.167 64.417 C 220.167 64.279,220.247 64.167,220.345 64.167 C 220.576 64.167,221.000 63.743,221.000 63.512 C 221.000 63.414,221.171 63.333,221.380 63.333 C 221.589 63.333,221.868 63.183,222.000 63.000 C 222.132 62.817,222.376 62.667,222.542 62.667 C 222.708 62.667,222.887 62.554,222.940 62.417 C 222.992 62.279,223.215 62.167,223.434 62.167 C 223.654 62.167,223.833 62.092,223.833 62.000 C 223.833 61.908,224.171 61.833,224.583 61.833 C 225.139 61.833,225.333 61.769,225.333 61.583 C 225.333 61.374,225.676 61.333,227.417 61.333 C 229.157 61.333,229.500 61.374,229.500 61.583 M119.060 62.417 C 119.116 62.561,119.365 62.667,119.652 62.667 C 119.924 62.667,120.193 62.742,120.250 62.833 C 120.307 62.925,120.611 63.000,120.927 63.000 C 121.242 63.000,121.500 63.075,121.500 63.167 C 121.500 63.258,121.616 63.333,121.758 63.333 C 121.900 63.333,122.190 63.521,122.402 63.750 C 122.614 63.979,122.948 64.167,123.144 64.167 C 123.340 64.167,123.500 64.245,123.500 64.341 C 123.500 64.512,124.242 65.333,124.396 65.333 C 124.541 65.333,125.500 66.358,125.500 66.513 C 125.500 66.597,125.575 66.667,125.667 66.667 C 125.775 66.667,125.833 69.361,125.833 74.417 C 125.833 79.472,125.775 82.167,125.667 82.167 C 125.575 82.167,125.500 82.279,125.500 82.417 C 125.500 82.554,125.420 82.667,125.321 82.667 C 125.091 82.667,124.667 83.091,124.667 83.321 C 124.667 83.420,124.588 83.500,124.492 83.500 C 124.266 83.500,123.500 84.266,123.500 84.492 C 123.500 84.588,123.313 84.667,123.083 84.667 C 122.854 84.667,122.667 84.742,122.667 84.833 C 122.667 84.925,122.479 85.000,122.250 85.000 C 121.991 85.000,121.833 85.094,121.833 85.250 C 121.833 85.406,121.676 85.500,121.417 85.500 C 121.188 85.500,121.000 85.575,121.000 85.667 C 121.000 85.758,120.737 85.833,120.417 85.833 C 120.096 85.833,119.833 85.908,119.833 86.000 C 119.833 86.092,119.493 86.167,119.078 86.167 C 118.561 86.167,118.293 86.245,118.227 86.417 C 118.150 86.616,117.787 86.667,116.417 86.667 C 115.047 86.667,114.683 86.616,114.606 86.417 C 114.541 86.245,114.273 86.167,113.755 86.167 C 113.340 86.167,113.000 86.092,113.000 86.000 C 113.000 85.908,112.813 85.833,112.583 85.833 C 112.354 85.833,112.167 85.758,112.167 85.667 C 112.167 85.575,111.979 85.500,111.750 85.500 C 111.491 85.500,111.333 85.406,111.333 85.250 C 111.333 85.111,111.185 85.000,111.000 85.000 C 110.817 85.000,110.667 84.925,110.667 84.833 C 110.667 84.742,110.562 84.667,110.434 84.667 C 110.307 84.667,110.159 84.554,110.106 84.417 C 110.054 84.279,109.892 84.167,109.748 84.167 C 109.454 84.167,108.667 83.444,108.667 83.174 C 108.667 83.078,108.554 83.000,108.417 83.000 C 108.279 83.000,108.164 82.869,108.161 82.708 C 108.156 82.396,107.791 81.833,107.595 81.833 C 107.353 81.833,107.000 81.346,107.000 81.012 C 107.000 80.822,106.925 80.667,106.833 80.667 C 106.742 80.667,106.667 80.479,106.667 80.250 C 106.667 79.991,106.572 79.833,106.417 79.833 C 106.242 79.833,106.167 79.657,106.167 79.250 C 106.167 78.929,106.092 78.667,106.000 78.667 C 105.908 78.667,105.833 78.404,105.833 78.083 C 105.833 77.676,105.758 77.500,105.583 77.500 C 105.370 77.500,105.333 77.046,105.333 74.417 C 105.333 71.787,105.370 71.333,105.583 71.333 C 105.758 71.333,105.833 71.157,105.833 70.750 C 105.833 70.429,105.908 70.167,106.000 70.167 C 106.092 70.167,106.167 69.904,106.167 69.583 C 106.167 69.176,106.242 69.000,106.417 69.000 C 106.572 69.000,106.667 68.843,106.667 68.583 C 106.667 68.354,106.742 68.167,106.833 68.167 C 106.925 68.167,107.000 67.997,107.000 67.790 C 107.000 67.582,107.187 67.272,107.417 67.100 C 107.646 66.927,107.833 66.686,107.833 66.562 C 107.833 66.302,109.413 64.667,109.664 64.667 C 109.757 64.667,109.833 64.554,109.833 64.417 C 109.833 64.278,109.981 64.167,110.167 64.167 C 110.350 64.167,110.500 64.092,110.500 64.000 C 110.500 63.908,110.612 63.833,110.750 63.833 C 110.888 63.833,111.000 63.721,111.000 63.583 C 111.000 63.428,111.157 63.333,111.417 63.333 C 111.646 63.333,111.833 63.258,111.833 63.167 C 111.833 63.075,112.021 63.000,112.250 63.000 C 112.479 63.000,112.667 62.925,112.667 62.833 C 112.667 62.742,112.926 62.667,113.243 62.667 C 113.561 62.667,113.917 62.557,114.035 62.423 C 114.355 62.060,118.921 62.054,119.060 62.417 M315.833 83.250 C 315.833 83.425,315.657 83.500,315.250 83.500 C 314.929 83.500,314.667 83.575,314.667 83.667 C 314.667 83.758,314.404 83.833,314.083 83.833 C 313.762 83.833,313.500 83.908,313.500 84.000 C 313.500 84.092,313.387 84.167,313.250 84.167 C 313.112 84.167,313.000 84.279,313.000 84.417 C 313.000 84.554,312.869 84.669,312.708 84.672 C 312.396 84.678,311.833 85.042,311.833 85.239 C 311.833 85.386,311.395 85.833,311.250 85.833 C 311.077 85.833,310.667 86.294,310.667 86.488 C 310.667 86.586,310.593 86.667,310.503 86.667 C 310.413 86.667,310.293 86.854,310.235 87.083 C 310.178 87.313,310.064 87.500,309.982 87.500 C 309.900 87.500,309.833 87.650,309.833 87.833 C 309.833 88.017,309.758 88.167,309.667 88.167 C 309.575 88.167,309.500 88.354,309.500 88.583 C 309.500 88.843,309.406 89.000,309.250 89.000 C 309.061 89.000,309.000 89.204,309.000 89.833 C 309.000 90.292,308.925 90.667,308.833 90.667 C 308.732 90.667,308.667 91.417,308.667 92.583 C 308.667 93.750,308.732 94.500,308.833 94.500 C 308.925 94.500,309.000 94.840,309.000 95.255 C 309.000 95.773,309.079 96.041,309.250 96.106 C 309.387 96.159,309.500 96.382,309.500 96.601 C 309.500 96.821,309.575 97.000,309.667 97.000 C 309.758 97.000,309.833 97.155,309.833 97.345 C 309.833 97.714,310.194 98.167,310.488 98.167 C 310.586 98.167,310.667 98.322,310.667 98.512 C 310.667 98.881,311.027 99.333,311.321 99.333 C 311.420 99.333,311.500 99.414,311.500 99.512 C 311.500 99.806,311.952 100.167,312.321 100.167 C 312.511 100.167,312.667 100.247,312.667 100.345 C 312.667 100.639,313.119 101.000,313.488 101.000 C 313.678 101.000,313.833 101.075,313.833 101.167 C 313.833 101.258,314.013 101.333,314.232 101.333 C 314.452 101.333,314.674 101.446,314.727 101.583 C 314.790 101.747,315.050 101.833,315.485 101.833 C 315.849 101.833,316.193 101.908,316.250 102.000 C 316.309 102.095,317.168 102.167,318.260 102.167 C 319.420 102.167,320.167 102.101,320.167 102.000 C 320.167 101.908,320.507 101.833,320.922 101.833 C 321.439 101.833,321.707 101.755,321.773 101.583 C 321.826 101.446,322.007 101.333,322.175 101.333 C 322.343 101.333,322.527 101.258,322.583 101.167 C 322.640 101.075,322.832 101.000,323.010 101.000 C 323.188 101.000,323.333 100.925,323.333 100.833 C 323.333 100.742,323.446 100.667,323.583 100.667 C 323.721 100.667,323.833 100.554,323.833 100.417 C 323.833 100.279,323.952 100.167,324.096 100.167 C 324.437 100.167,325.333 99.270,325.333 98.929 C 325.333 98.785,325.446 98.667,325.583 98.667 C 325.721 98.667,325.833 98.588,325.833 98.492 C 325.833 98.397,326.021 98.131,326.250 97.902 C 326.479 97.672,326.667 97.376,326.667 97.242 C 326.667 97.109,326.742 97.000,326.833 97.000 C 326.925 97.000,327.000 96.737,327.000 96.417 C 327.000 96.096,327.075 95.833,327.167 95.833 C 327.258 95.833,327.333 95.466,327.333 95.018 C 327.333 94.447,327.408 94.174,327.583 94.106 C 327.780 94.031,327.833 93.689,327.833 92.505 C 327.833 91.278,327.787 91.000,327.583 91.000 C 327.389 91.000,327.333 90.778,327.333 90.000 C 327.333 89.444,327.259 89.000,327.167 89.000 C 327.075 89.000,327.000 88.813,327.000 88.583 C 327.000 88.354,326.925 88.167,326.833 88.167 C 326.742 88.167,326.667 88.017,326.667 87.833 C 326.667 87.648,326.556 87.500,326.417 87.500 C 326.261 87.500,326.167 87.343,326.167 87.083 C 326.167 86.854,326.092 86.667,326.000 86.667 C 325.908 86.667,325.833 86.554,325.833 86.417 C 325.833 86.279,325.753 86.167,325.655 86.167 C 325.557 86.167,325.154 85.829,324.759 85.417 C 324.349 84.990,323.888 84.667,323.687 84.667 C 323.492 84.667,323.333 84.586,323.333 84.488 C 323.333 84.150,322.856 83.833,322.345 83.833 C 322.064 83.833,321.833 83.758,321.833 83.667 C 321.833 83.575,321.579 83.500,321.268 83.500 C 320.919 83.500,320.666 83.404,320.606 83.250 C 320.527 83.044,320.097 83.000,318.172 83.000 C 316.204 83.000,315.833 83.040,315.833 83.250 " stroke="none" fill="#2454ac" fill-rule="evenodd"></path><path id="path1" d="" stroke="none" fill="#2854ac" fill-rule="evenodd"></path><path id="path2" d="" stroke="none" fill="#2854ac" fill-rule="evenodd"></path><path id="path3" d="" stroke="none" fill="#2854ac" fill-rule="evenodd"></path><path id="path4" d="" stroke="none" fill="#2854ac" fill-rule="evenodd"></path></g></svg>